<svg width="32" height="25" viewBox="0 0 32 25" fill="none" xmlns="http://www.w3.org/2000/svg">
<g clip-path="url(#clip0_433_172)">
<path d="M17.6 6.25C17.6 9.70215 14.735 12.5 11.2 12.5C7.665 12.5 4.8 9.70215 4.8 6.25C4.8 2.79785 7.665 0 11.2 0C14.735 0 17.6 2.79785 17.6 6.25ZM0 23.5498C0 18.7402 3.99 14.8438 8.915 14.8438H13.485C18.41 14.8438 22.4 18.7402 22.4 23.5498C22.4 24.3506 21.735 25 20.915 25H1.485C0.665 25 0 24.3506 0 23.5498ZM25.2 15.2344V12.1094H22C21.335 12.1094 20.8 11.5869 20.8 10.9375C20.8 10.2881 21.335 9.76562 22 9.76562H25.2V6.64062C25.2 5.99121 25.735 5.46875 26.4 5.46875C27.065 5.46875 27.6 5.99121 27.6 6.64062V9.76562H30.8C31.465 9.76562 32 10.2881 32 10.9375C32 11.5869 31.465 12.1094 30.8 12.1094H27.6V15.2344C27.6 15.8838 27.065 16.4062 26.4 16.4062C25.735 16.4062 25.2 15.8838 25.2 15.2344Z" fill="black"/>
</g>
<defs>
<clipPath id="clip0_433_172">
<rect width="32" height="25" fill="white"/>
</clipPath>
</defs>
</svg>
