<svg width="25" height="20" viewBox="0 0 25 20" fill="none" xmlns="http://www.w3.org/2000/svg">
<path d="M3.67047 7.50032C3.37084 7.50032 3.07122 7.3975 2.84275 7.19187C2.38534 6.78062 2.38534 6.11358 2.84275 5.70232L8.83534 0.30876C9.29228 -0.10292 10.0339 -0.10292 10.4903 0.30876C10.9477 0.72002 10.9477 1.38705 10.4903 1.79831L4.49773 7.19187C4.26973 7.3975 3.9701 7.50032 3.67047 7.50032Z" fill="#4285F4"/>
<path d="M23.4732 4.99951H0.694435C0.254265 4.99951 -0.0750227 5.34242 0.0148593 5.708L3.40854 19.5314C3.47574 19.8045 3.75925 20.0001 4.08811 20.0001H20.0796C20.4084 20.0001 20.6924 19.8045 20.7591 19.5314L24.1528 5.708C24.2427 5.34242 23.9138 4.99951 23.4732 4.99951ZM8.32223 16.8722C8.32223 17.1226 8.13029 17.3258 7.89382 17.3258H6.55735C6.32088 17.3258 6.12894 17.1226 6.12894 16.8722V8.48993C6.12894 8.23954 6.32088 8.03629 6.55735 8.03629H7.89382C8.13029 8.03629 8.32223 8.23954 8.32223 8.48993V16.8722ZM13.1805 16.8722C13.1805 17.1226 12.9885 17.3258 12.7521 17.3258H11.4156C11.1791 17.3258 10.9872 17.1226 10.9872 16.8722V8.48993C10.9872 8.23954 11.1791 8.03629 11.4156 8.03629H12.7521C12.9885 8.03629 13.1805 8.23954 13.1805 8.48993V16.8722ZM18.0383 16.8722C18.0383 17.1226 17.8464 17.3258 17.6099 17.3258H16.2734C16.037 17.3258 15.845 17.1226 15.845 16.8722V8.48993C15.845 8.23954 16.037 8.03629 16.2734 8.03629H17.6099C17.8464 8.03629 18.0383 8.23954 18.0383 8.48993V16.8722Z" fill="#4285F4"/>
<path d="M19.8977 7.50032C19.658 7.50032 19.4187 7.3975 19.2355 7.19187L14.4414 1.79831C14.0755 1.38705 14.0755 0.72002 14.4414 0.30876C14.8073 -0.10292 15.3997 -0.10292 15.7653 0.30876L20.5595 5.70232C20.9254 6.11358 20.9254 6.78062 20.5595 7.19187C20.3771 7.3975 20.1374 7.50032 19.8977 7.50032Z" fill="#4285F4"/>
</svg>
