<svg width="34" height="34" viewBox="0 0 34 34" fill="none" xmlns="http://www.w3.org/2000/svg">
<path opacity="0.5" fill-rule="evenodd" clip-rule="evenodd" d="M17 34C26.3888 34 34 26.3888 34 17C34 7.61116 26.3888 0 17 0C7.61116 0 0 7.61116 0 17C0 26.3888 7.61116 34 17 34Z" fill="black"/>
<path fill-rule="evenodd" clip-rule="evenodd" d="M12.7573 11.3432C12.3668 10.9527 11.7336 10.9527 11.3431 11.3432C10.9526 11.7337 10.9526 12.3669 11.3431 12.7574L15.5858 17L11.3431 21.2427C10.9526 21.6332 10.9526 22.2664 11.3431 22.6569C11.7336 23.0474 12.3668 23.0474 12.7573 22.6569L17 18.4143L21.2426 22.6569C21.6331 23.0474 22.2663 23.0474 22.6568 22.6569C23.0474 22.2664 23.0474 21.6332 22.6568 21.2427L18.4142 17L22.6568 12.7574C23.0474 12.3669 23.0474 11.7337 22.6568 11.3432C22.2663 10.9527 21.6331 10.9527 21.2426 11.3432L17 15.5858L12.7573 11.3432Z" fill="white"/>
</svg>
