<svg width="288" height="46" viewBox="0 0 288 46" fill="none" xmlns="http://www.w3.org/2000/svg">
<path d="M264.5 2.0835C258.75 2.0835 254.083 6.75016 254.083 12.5002C254.083 18.2502 258.75 22.9168 264.5 22.9168C270.25 22.9168 274.917 18.2502 274.917 12.5002C274.917 6.75016 270.25 2.0835 264.5 2.0835ZM262.417 17.7085L257.208 12.5002L258.677 11.0314L262.417 14.7606L270.323 6.85433L271.792 8.3335L262.417 17.7085Z" fill="#4285F4"/>
<line x1="44" y1="12.5" x2="124" y2="12.5" stroke="#979797"/>
<line x1="159" y1="12.5" x2="239" y2="12.5" stroke="#979797"/>
<circle cx="21.5" cy="12.5" r="5.5" fill="#D9D9D9"/>
<circle cx="140.5" cy="12.5" r="5.5" fill="#D9D9D9"/>
<path d="M11.9105 38.836C11.9105 39.556 11.7985 40.184 11.5745 40.72C11.3505 41.248 11.0345 41.688 10.6265 42.04C10.2185 42.384 9.73053 42.644 9.16253 42.82C8.59453 42.988 7.97053 43.072 7.29053 43.072C6.95453 43.072 6.58253 43.056 6.17453 43.024C5.77453 43 5.41053 42.948 5.08253 42.868V39.112H4.12253V38.212H5.08253V34.804C5.41053 34.724 5.77453 34.672 6.17453 34.648C6.58253 34.616 6.95453 34.6 7.29053 34.6C7.97053 34.6 8.59453 34.688 9.16253 34.864C9.73053 35.032 10.2185 35.292 10.6265 35.644C11.0345 35.988 11.3505 36.428 11.5745 36.964C11.7985 37.492 11.9105 38.116 11.9105 38.836ZM7.38653 42.052C8.49053 42.052 9.31453 41.772 9.85853 41.212C10.4025 40.644 10.6745 39.852 10.6745 38.836C10.6745 37.82 10.4025 37.032 9.85853 36.472C9.31453 35.904 8.49053 35.62 7.38653 35.62C7.05853 35.62 6.80253 35.624 6.61853 35.632C6.44253 35.64 6.31853 35.648 6.24653 35.656V38.212H7.80653V39.112H6.24653V42.016C6.31853 42.024 6.44253 42.032 6.61853 42.04C6.80253 42.048 7.05853 42.052 7.38653 42.052ZM15.5095 42.196C15.7735 42.196 16.0055 42.192 16.2055 42.184C16.4135 42.168 16.5855 42.144 16.7215 42.112V40.252C16.6415 40.212 16.5095 40.18 16.3255 40.156C16.1495 40.124 15.9335 40.108 15.6775 40.108C15.5095 40.108 15.3295 40.12 15.1375 40.144C14.9535 40.168 14.7815 40.22 14.6215 40.3C14.4695 40.372 14.3415 40.476 14.2375 40.612C14.1335 40.74 14.0815 40.912 14.0815 41.128C14.0815 41.528 14.2095 41.808 14.4655 41.968C14.7215 42.12 15.0695 42.196 15.5095 42.196ZM15.4135 36.604C15.8615 36.604 16.2375 36.664 16.5415 36.784C16.8535 36.896 17.1015 37.06 17.2855 37.276C17.4775 37.484 17.6135 37.736 17.6935 38.032C17.7735 38.32 17.8135 38.64 17.8135 38.992V42.892C17.7175 42.908 17.5815 42.932 17.4055 42.964C17.2375 42.988 17.0455 43.012 16.8295 43.036C16.6135 43.06 16.3775 43.08 16.1215 43.096C15.8735 43.12 15.6255 43.132 15.3775 43.132C15.0255 43.132 14.7015 43.096 14.4055 43.024C14.1095 42.952 13.8535 42.84 13.6375 42.688C13.4215 42.528 13.2535 42.32 13.1335 42.064C13.0135 41.808 12.9535 41.5 12.9535 41.14C12.9535 40.796 13.0215 40.5 13.1575 40.252C13.3015 40.004 13.4935 39.804 13.7335 39.652C13.9735 39.5 14.2535 39.388 14.5735 39.316C14.8935 39.244 15.2295 39.208 15.5815 39.208C15.6935 39.208 15.8095 39.216 15.9295 39.232C16.0495 39.24 16.1615 39.256 16.2655 39.28C16.3775 39.296 16.4735 39.312 16.5535 39.328C16.6335 39.344 16.6895 39.356 16.7215 39.364V39.052C16.7215 38.868 16.7015 38.688 16.6615 38.512C16.6215 38.328 16.5495 38.168 16.4455 38.032C16.3415 37.888 16.1975 37.776 16.0135 37.696C15.8375 37.608 15.6055 37.564 15.3175 37.564C14.9495 37.564 14.6255 37.592 14.3455 37.648C14.0735 37.696 13.8695 37.748 13.7335 37.804L13.6015 36.88C13.7455 36.816 13.9855 36.756 14.3215 36.7C14.6575 36.636 15.0215 36.604 15.4135 36.604ZM17.5735 34.468C17.5335 34.564 17.4775 34.676 17.4055 34.804C17.3415 34.932 17.2575 35.052 17.1535 35.164C17.0495 35.268 16.9255 35.36 16.7815 35.44C16.6455 35.512 16.4935 35.548 16.3255 35.548C16.1655 35.548 16.0135 35.52 15.8695 35.464C15.7335 35.408 15.6015 35.348 15.4735 35.284C15.3375 35.22 15.2215 35.172 15.1255 35.14C15.0295 35.108 14.9375 35.092 14.8495 35.092C14.7135 35.092 14.5855 35.148 14.4655 35.26C14.3535 35.372 14.2655 35.492 14.2015 35.62L13.6255 35.332C13.6575 35.236 13.7095 35.124 13.7815 34.996C13.8535 34.868 13.9415 34.752 14.0455 34.648C14.1495 34.536 14.2695 34.444 14.4055 34.372C14.5495 34.292 14.7055 34.252 14.8735 34.252C15.0335 34.252 15.1815 34.28 15.3175 34.336C15.4615 34.392 15.5975 34.452 15.7255 34.516C15.8615 34.58 15.9775 34.628 16.0735 34.66C16.1695 34.692 16.2615 34.708 16.3495 34.708C16.4855 34.708 16.6095 34.652 16.7215 34.54C16.8415 34.428 16.9335 34.308 16.9975 34.18L17.5735 34.468ZM26.4764 38.128C26.3404 38.016 26.1444 37.908 25.8884 37.804C25.6324 37.7 25.3524 37.648 25.0484 37.648C24.7284 37.648 24.4524 37.704 24.2204 37.816C23.9964 37.928 23.8124 38.084 23.6684 38.284C23.5244 38.484 23.4204 38.724 23.3564 39.004C23.2924 39.276 23.2604 39.572 23.2604 39.892C23.2604 40.62 23.4404 41.18 23.8004 41.572C24.1604 41.964 24.6404 42.16 25.2404 42.16C25.5444 42.16 25.7964 42.148 25.9964 42.124C26.2044 42.092 26.3644 42.06 26.4764 42.028V38.128ZM26.4764 33.88L27.5924 33.688V34.804H28.4804V35.632H27.5924V42.82C27.3364 42.892 27.0084 42.964 26.6084 43.036C26.2084 43.108 25.7484 43.144 25.2284 43.144C24.7484 43.144 24.3164 43.072 23.9324 42.928C23.5484 42.776 23.2204 42.56 22.9484 42.28C22.6764 41.992 22.4644 41.648 22.3124 41.248C22.1684 40.848 22.0964 40.396 22.0964 39.892C22.0964 39.412 22.1564 38.976 22.2764 38.584C22.4044 38.184 22.5884 37.844 22.8284 37.564C23.0684 37.276 23.3604 37.056 23.7044 36.904C24.0564 36.744 24.4564 36.664 24.9044 36.664C25.2644 36.664 25.5804 36.712 25.8524 36.808C26.1324 36.904 26.3404 36.996 26.4764 37.084V35.632H24.3524V34.804H26.4764V33.88ZM32.0068 36.46C32.7908 36.46 33.3708 36.632 33.7468 36.976C34.1228 37.32 34.3108 37.868 34.3108 38.62V43H33.5428L33.3388 42.088H33.2908C33.1068 42.32 32.9148 42.516 32.7148 42.676C32.5228 42.828 32.2988 42.94 32.0428 43.012C31.7948 43.084 31.4908 43.12 31.1308 43.12C30.7468 43.12 30.3988 43.052 30.0868 42.916C29.7828 42.78 29.5428 42.572 29.3668 42.292C29.1908 42.004 29.1028 41.644 29.1028 41.212C29.1028 40.572 29.3548 40.08 29.8588 39.736C30.3628 39.384 31.1388 39.192 32.1868 39.16L33.2788 39.124V38.74C33.2788 38.204 33.1628 37.832 32.9308 37.624C32.6988 37.416 32.3708 37.312 31.9468 37.312C31.6108 37.312 31.2908 37.364 30.9868 37.468C30.6828 37.564 30.3988 37.676 30.1348 37.804L29.8108 37.012C30.0908 36.86 30.4228 36.732 30.8068 36.628C31.1908 36.516 31.5908 36.46 32.0068 36.46ZM32.3188 39.892C31.5188 39.924 30.9628 40.052 30.6508 40.276C30.3468 40.5 30.1948 40.816 30.1948 41.224C30.1948 41.584 30.3028 41.848 30.5188 42.016C30.7428 42.184 31.0268 42.268 31.3708 42.268C31.9148 42.268 32.3668 42.12 32.7268 41.824C33.0868 41.52 33.2668 41.056 33.2668 40.432V39.856L32.3188 39.892ZM33.8428 34.12C33.8188 34.44 33.7268 34.72 33.5668 34.96C33.4148 35.2 33.2028 35.388 32.9308 35.524C32.6588 35.66 32.3308 35.728 31.9468 35.728C31.3548 35.728 30.9068 35.584 30.6028 35.296C30.3068 35 30.1428 34.608 30.1108 34.12H30.7588C30.7828 34.336 30.8428 34.5 30.9388 34.612C31.0428 34.716 31.1788 34.788 31.3468 34.828C31.5228 34.86 31.7308 34.876 31.9708 34.876C32.1788 34.876 32.3668 34.856 32.5348 34.816C32.7108 34.776 32.8548 34.704 32.9668 34.6C33.0868 34.488 33.1588 34.328 33.1828 34.12H33.8428ZM31.7068 45.112C31.5388 45.112 31.3908 45.056 31.2628 44.944C31.1428 44.832 31.0828 44.664 31.0828 44.44C31.0828 44.208 31.1428 44.036 31.2628 43.924C31.3908 43.82 31.5388 43.768 31.7068 43.768C31.8748 43.768 32.0188 43.82 32.1388 43.924C32.2668 44.036 32.3308 44.208 32.3308 44.44C32.3308 44.664 32.2668 44.832 32.1388 44.944C32.0188 45.056 31.8748 45.112 31.7068 45.112ZM37.2813 36.76H39.6453V37.696H37.2813V40.576C37.2813 40.888 37.3053 41.148 37.3533 41.356C37.4013 41.556 37.4733 41.716 37.5693 41.836C37.6653 41.948 37.7853 42.028 37.9293 42.076C38.0733 42.124 38.2413 42.148 38.4333 42.148C38.7693 42.148 39.0373 42.112 39.2373 42.04C39.4453 41.96 39.5893 41.904 39.6693 41.872L39.8853 42.796C39.7733 42.852 39.5773 42.92 39.2973 43C39.0173 43.088 38.6973 43.132 38.3373 43.132C37.9133 43.132 37.5613 43.08 37.2813 42.976C37.0093 42.864 36.7893 42.7 36.6213 42.484C36.4533 42.268 36.3333 42.004 36.2613 41.692C36.1973 41.372 36.1653 41.004 36.1653 40.588V35.02L37.2813 34.828V36.76Z" fill="#818181"/>
<path d="M123.737 43.18C123.153 43.18 122.621 43.084 122.141 42.892C121.661 42.7 121.249 42.42 120.905 42.052C120.561 41.684 120.293 41.232 120.101 40.696C119.917 40.152 119.825 39.532 119.825 38.836C119.825 38.14 119.929 37.524 120.137 36.988C120.353 36.444 120.641 35.988 121.001 35.62C121.361 35.252 121.781 34.972 122.261 34.78C122.741 34.588 123.253 34.492 123.797 34.492C124.141 34.492 124.449 34.516 124.721 34.564C125.001 34.612 125.241 34.668 125.441 34.732C125.649 34.796 125.817 34.86 125.945 34.924C126.073 34.988 126.161 35.036 126.209 35.068L125.873 36.028C125.801 35.98 125.697 35.928 125.561 35.872C125.425 35.816 125.269 35.76 125.093 35.704C124.925 35.648 124.737 35.604 124.529 35.572C124.329 35.532 124.125 35.512 123.917 35.512C123.477 35.512 123.081 35.588 122.729 35.74C122.377 35.892 122.077 36.112 121.829 36.4C121.581 36.688 121.389 37.04 121.253 37.456C121.125 37.864 121.061 38.324 121.061 38.836C121.061 39.332 121.117 39.784 121.229 40.192C121.349 40.6 121.525 40.952 121.757 41.248C121.989 41.536 122.277 41.76 122.621 41.92C122.973 42.08 123.381 42.16 123.845 42.16C124.381 42.16 124.825 42.104 125.177 41.992C125.529 41.88 125.793 41.78 125.969 41.692L126.269 42.652C126.213 42.692 126.113 42.744 125.969 42.808C125.825 42.864 125.645 42.92 125.429 42.976C125.213 43.032 124.961 43.08 124.673 43.12C124.385 43.16 124.073 43.18 123.737 43.18ZM127.53 43V33.88L128.646 33.688V36.88C128.854 36.8 129.074 36.74 129.306 36.7C129.546 36.652 129.782 36.628 130.014 36.628C130.51 36.628 130.922 36.7 131.25 36.844C131.578 36.98 131.838 37.176 132.03 37.432C132.23 37.68 132.37 37.98 132.45 38.332C132.53 38.684 132.57 39.072 132.57 39.496V43H131.454V39.736C131.454 39.352 131.426 39.024 131.37 38.752C131.322 38.48 131.238 38.26 131.118 38.092C130.998 37.924 130.838 37.804 130.638 37.732C130.438 37.652 130.19 37.612 129.894 37.612C129.774 37.612 129.65 37.62 129.522 37.636C129.394 37.652 129.27 37.672 129.15 37.696C129.038 37.712 128.934 37.732 128.838 37.756C128.75 37.78 128.686 37.8 128.646 37.816V43H127.53ZM139.354 42.82C139.098 42.884 138.758 42.952 138.334 43.024C137.918 43.096 137.434 43.132 136.882 43.132C136.402 43.132 135.998 43.064 135.67 42.928C135.342 42.784 135.078 42.584 134.878 42.328C134.678 42.072 134.534 41.772 134.446 41.428C134.358 41.076 134.314 40.688 134.314 40.264V36.76H135.43V40.024C135.43 40.784 135.55 41.328 135.79 41.656C136.03 41.984 136.434 42.148 137.002 42.148C137.122 42.148 137.246 42.144 137.374 42.136C137.502 42.128 137.622 42.12 137.734 42.112C137.846 42.096 137.946 42.084 138.034 42.076C138.13 42.06 138.198 42.044 138.238 42.028V36.76H139.354V42.82ZM144.252 34.048C144.38 34.224 144.516 34.404 144.66 34.588C144.804 34.764 144.948 34.936 145.092 35.104C145.244 35.272 145.388 35.432 145.524 35.584V35.728H144.936C144.736 35.592 144.532 35.444 144.324 35.284C144.116 35.116 143.908 34.94 143.7 34.756C143.492 34.94 143.284 35.116 143.076 35.284C142.868 35.444 142.664 35.592 142.464 35.728H141.876V35.584C142.012 35.432 142.152 35.272 142.296 35.104C142.448 34.936 142.596 34.764 142.74 34.588C142.892 34.404 143.028 34.224 143.148 34.048H144.252ZM145.38 32.548C145.748 32.548 146.032 32.616 146.232 32.752C146.432 32.888 146.532 33.096 146.532 33.376C146.532 33.608 146.46 33.784 146.316 33.904C146.172 34.016 145.996 34.096 145.788 34.144L145.752 34.612H145.26L145.2 33.856C145.432 33.816 145.608 33.768 145.728 33.712C145.848 33.648 145.908 33.544 145.908 33.4C145.908 33.264 145.852 33.172 145.74 33.124C145.636 33.068 145.5 33.04 145.332 33.04C145.252 33.04 145.172 33.044 145.092 33.052C145.02 33.052 144.96 33.06 144.912 33.076V32.584C144.96 32.568 145.024 32.56 145.104 32.56C145.184 32.552 145.276 32.548 145.38 32.548ZM143.772 36.46C144.556 36.46 145.136 36.632 145.512 36.976C145.888 37.32 146.076 37.868 146.076 38.62V43H145.308L145.104 42.088H145.056C144.872 42.32 144.68 42.516 144.48 42.676C144.288 42.828 144.064 42.94 143.808 43.012C143.56 43.084 143.256 43.12 142.896 43.12C142.512 43.12 142.164 43.052 141.852 42.916C141.548 42.78 141.308 42.572 141.132 42.292C140.956 42.004 140.868 41.644 140.868 41.212C140.868 40.572 141.12 40.08 141.624 39.736C142.128 39.384 142.904 39.192 143.952 39.16L145.044 39.124V38.74C145.044 38.204 144.928 37.832 144.696 37.624C144.464 37.416 144.136 37.312 143.712 37.312C143.376 37.312 143.056 37.364 142.752 37.468C142.448 37.564 142.164 37.676 141.9 37.804L141.576 37.012C141.856 36.86 142.188 36.732 142.572 36.628C142.956 36.516 143.356 36.46 143.772 36.46ZM144.084 39.892C143.284 39.924 142.728 40.052 142.416 40.276C142.112 40.5 141.96 40.816 141.96 41.224C141.96 41.584 142.068 41.848 142.284 42.016C142.508 42.184 142.792 42.268 143.136 42.268C143.68 42.268 144.132 42.12 144.492 41.824C144.852 41.52 145.032 41.056 145.032 40.432V39.856L144.084 39.892ZM148.003 36.94C148.259 36.876 148.599 36.808 149.023 36.736C149.447 36.664 149.935 36.628 150.487 36.628C150.983 36.628 151.395 36.7 151.723 36.844C152.051 36.98 152.311 37.176 152.503 37.432C152.703 37.68 152.843 37.98 152.923 38.332C153.003 38.684 153.043 39.072 153.043 39.496V43H151.927V39.736C151.927 39.352 151.899 39.024 151.843 38.752C151.795 38.48 151.711 38.26 151.591 38.092C151.471 37.924 151.311 37.804 151.111 37.732C150.911 37.652 150.663 37.612 150.367 37.612C150.247 37.612 150.123 37.616 149.995 37.624C149.867 37.632 149.743 37.644 149.623 37.66C149.511 37.668 149.407 37.68 149.311 37.696C149.223 37.712 149.159 37.724 149.119 37.732V43H148.003V36.94ZM158.787 37.036C158.923 36.948 159.127 36.856 159.399 36.76C159.679 36.664 159.999 36.616 160.359 36.616C160.807 36.616 161.203 36.696 161.547 36.856C161.899 37.016 162.195 37.24 162.435 37.528C162.675 37.816 162.855 38.16 162.975 38.56C163.103 38.96 163.167 39.4 163.167 39.88C163.167 40.384 163.091 40.84 162.939 41.248C162.795 41.648 162.587 41.988 162.315 42.268C162.043 42.548 161.715 42.764 161.331 42.916C160.947 43.068 160.515 43.144 160.035 43.144C159.515 43.144 159.055 43.108 158.655 43.036C158.255 42.964 157.927 42.892 157.671 42.82V33.88L158.787 33.688V37.036ZM158.787 42.028C158.899 42.06 159.055 42.092 159.255 42.124C159.463 42.148 159.719 42.16 160.023 42.16C160.623 42.16 161.103 41.964 161.463 41.572C161.823 41.172 162.003 40.608 162.003 39.88C162.003 39.56 161.971 39.26 161.907 38.98C161.843 38.7 161.739 38.46 161.595 38.26C161.451 38.052 161.263 37.892 161.031 37.78C160.807 37.66 160.535 37.6 160.215 37.6C159.911 37.6 159.631 37.652 159.375 37.756C159.119 37.86 158.923 37.968 158.787 38.08V42.028ZM165.853 36.568V43H164.797V36.568H165.853ZM165.337 34.156C165.497 34.156 165.637 34.212 165.757 34.324C165.885 34.428 165.949 34.596 165.949 34.828C165.949 35.052 165.885 35.22 165.757 35.332C165.637 35.444 165.497 35.5 165.337 35.5C165.161 35.5 165.013 35.444 164.893 35.332C164.773 35.22 164.713 35.052 164.713 34.828C164.713 34.596 164.773 34.428 164.893 34.324C165.013 34.212 165.161 34.156 165.337 34.156ZM165.337 45.112C165.169 45.112 165.021 45.056 164.893 44.944C164.773 44.832 164.713 44.664 164.713 44.44C164.713 44.208 164.773 44.036 164.893 43.924C165.021 43.82 165.169 43.768 165.337 43.768C165.505 43.768 165.649 43.82 165.769 43.924C165.897 44.036 165.961 44.208 165.961 44.44C165.961 44.664 165.897 44.832 165.769 44.944C165.649 45.056 165.505 45.112 165.337 45.112Z" fill="#818181"/>
<path d="M227.552 34.684H229.424V43H227.552V39.472H224.408V43H222.536V34.684H224.408V37.864H227.552V34.684ZM237.133 39.832C237.133 40.328 237.061 40.784 236.917 41.2C236.773 41.608 236.565 41.96 236.293 42.256C236.021 42.544 235.693 42.768 235.309 42.928C234.933 43.088 234.509 43.168 234.037 43.168C233.573 43.168 233.149 43.088 232.765 42.928C232.389 42.768 232.065 42.544 231.793 42.256C231.521 41.96 231.309 41.608 231.157 41.2C231.005 40.784 230.929 40.328 230.929 39.832C230.929 39.336 231.005 38.884 231.157 38.476C231.317 38.068 231.533 37.72 231.805 37.432C232.085 37.144 232.413 36.92 232.789 36.76C233.173 36.6 233.589 36.52 234.037 36.52C234.493 36.52 234.909 36.6 235.285 36.76C235.669 36.92 235.997 37.144 236.269 37.432C236.541 37.72 236.753 38.068 236.905 38.476C237.057 38.884 237.133 39.336 237.133 39.832ZM235.309 39.832C235.309 39.28 235.197 38.848 234.973 38.536C234.757 38.216 234.445 38.056 234.037 38.056C233.629 38.056 233.313 38.216 233.089 38.536C232.865 38.848 232.753 39.28 232.753 39.832C232.753 40.384 232.865 40.824 233.089 41.152C233.313 41.472 233.629 41.632 234.037 41.632C234.445 41.632 234.757 41.472 234.973 41.152C235.197 40.824 235.309 40.384 235.309 39.832ZM240.93 41.752C241.106 41.752 241.274 41.748 241.434 41.74C241.594 41.732 241.722 41.72 241.818 41.704V40.348C241.746 40.332 241.638 40.316 241.494 40.3C241.35 40.284 241.218 40.276 241.098 40.276C240.93 40.276 240.77 40.288 240.618 40.312C240.474 40.328 240.346 40.364 240.234 40.42C240.122 40.476 240.034 40.552 239.97 40.648C239.906 40.744 239.874 40.864 239.874 41.008C239.874 41.288 239.966 41.484 240.15 41.596C240.342 41.7 240.602 41.752 240.93 41.752ZM240.786 36.52C241.314 36.52 241.754 36.58 242.106 36.7C242.458 36.82 242.738 36.992 242.946 37.216C243.162 37.44 243.314 37.712 243.402 38.032C243.49 38.352 243.534 38.708 243.534 39.1V42.82C243.278 42.876 242.922 42.94 242.466 43.012C242.01 43.092 241.458 43.132 240.81 43.132C240.402 43.132 240.03 43.096 239.694 43.024C239.366 42.952 239.082 42.836 238.842 42.676C238.602 42.508 238.418 42.292 238.29 42.028C238.162 41.764 238.098 41.44 238.098 41.056C238.098 40.688 238.17 40.376 238.314 40.12C238.466 39.864 238.666 39.66 238.914 39.508C239.162 39.356 239.446 39.248 239.766 39.184C240.086 39.112 240.418 39.076 240.762 39.076C240.994 39.076 241.198 39.088 241.374 39.112C241.558 39.128 241.706 39.152 241.818 39.184V39.016C241.818 38.712 241.726 38.468 241.542 38.284C241.358 38.1 241.038 38.008 240.582 38.008C240.278 38.008 239.978 38.032 239.682 38.08C239.386 38.12 239.13 38.18 238.914 38.26L238.686 36.82C238.79 36.788 238.918 36.756 239.07 36.724C239.23 36.684 239.402 36.652 239.586 36.628C239.77 36.596 239.962 36.572 240.162 36.556C240.37 36.532 240.578 36.52 240.786 36.52ZM240.486 33.412L242.19 35.356L241.374 36.088L239.394 34.42L240.486 33.412ZM245.151 36.904C245.455 36.816 245.847 36.736 246.327 36.664C246.807 36.584 247.311 36.544 247.839 36.544C248.375 36.544 248.819 36.616 249.171 36.76C249.531 36.896 249.815 37.092 250.023 37.348C250.231 37.604 250.379 37.908 250.467 38.26C250.555 38.612 250.599 39.004 250.599 39.436V43H248.811V39.652C248.811 39.076 248.735 38.668 248.583 38.428C248.431 38.188 248.147 38.068 247.731 38.068C247.603 38.068 247.467 38.076 247.323 38.092C247.179 38.1 247.051 38.112 246.939 38.128V43H245.151V36.904ZM255.04 35.116L256.828 34.828V36.688H258.976V38.176H256.828V40.396C256.828 40.772 256.892 41.072 257.02 41.296C257.156 41.52 257.424 41.632 257.824 41.632C258.016 41.632 258.212 41.616 258.412 41.584C258.62 41.544 258.808 41.492 258.976 41.428L259.228 42.82C259.012 42.908 258.772 42.984 258.508 43.048C258.244 43.112 257.92 43.144 257.536 43.144C257.048 43.144 256.644 43.08 256.324 42.952C256.004 42.816 255.748 42.632 255.556 42.4C255.364 42.16 255.228 41.872 255.148 41.536C255.076 41.2 255.04 40.828 255.04 40.42V35.116ZM260.432 43V33.976L262.22 33.688V36.712C262.34 36.672 262.492 36.636 262.676 36.604C262.868 36.564 263.052 36.544 263.228 36.544C263.74 36.544 264.164 36.616 264.5 36.76C264.844 36.896 265.116 37.092 265.316 37.348C265.524 37.604 265.668 37.908 265.748 38.26C265.836 38.612 265.88 39.004 265.88 39.436V43H264.092V39.652C264.092 39.076 264.016 38.668 263.864 38.428C263.72 38.188 263.448 38.068 263.048 38.068C262.888 38.068 262.736 38.084 262.592 38.116C262.456 38.14 262.332 38.168 262.22 38.2V43H260.432ZM269.91 41.752C270.086 41.752 270.254 41.748 270.414 41.74C270.574 41.732 270.702 41.72 270.798 41.704V40.348C270.726 40.332 270.618 40.316 270.474 40.3C270.33 40.284 270.198 40.276 270.078 40.276C269.91 40.276 269.75 40.288 269.598 40.312C269.454 40.328 269.326 40.364 269.214 40.42C269.102 40.476 269.014 40.552 268.95 40.648C268.886 40.744 268.854 40.864 268.854 41.008C268.854 41.288 268.946 41.484 269.13 41.596C269.322 41.7 269.582 41.752 269.91 41.752ZM269.766 36.52C270.294 36.52 270.734 36.58 271.086 36.7C271.438 36.82 271.718 36.992 271.926 37.216C272.142 37.44 272.294 37.712 272.382 38.032C272.47 38.352 272.514 38.708 272.514 39.1V42.82C272.258 42.876 271.902 42.94 271.446 43.012C270.99 43.092 270.438 43.132 269.79 43.132C269.382 43.132 269.01 43.096 268.674 43.024C268.346 42.952 268.062 42.836 267.822 42.676C267.582 42.508 267.398 42.292 267.27 42.028C267.142 41.764 267.078 41.44 267.078 41.056C267.078 40.688 267.15 40.376 267.294 40.12C267.446 39.864 267.646 39.66 267.894 39.508C268.142 39.356 268.426 39.248 268.746 39.184C269.066 39.112 269.398 39.076 269.742 39.076C269.974 39.076 270.178 39.088 270.354 39.112C270.538 39.128 270.686 39.152 270.798 39.184V39.016C270.798 38.712 270.706 38.468 270.522 38.284C270.338 38.1 270.018 38.008 269.562 38.008C269.258 38.008 268.958 38.032 268.662 38.08C268.366 38.12 268.11 38.18 267.894 38.26L267.666 36.82C267.77 36.788 267.898 36.756 268.05 36.724C268.21 36.684 268.382 36.652 268.566 36.628C268.75 36.596 268.942 36.572 269.142 36.556C269.35 36.532 269.558 36.52 269.766 36.52ZM269.466 33.412L271.17 35.356L270.354 36.088L268.374 34.42L269.466 33.412ZM274.131 36.904C274.435 36.816 274.827 36.736 275.307 36.664C275.787 36.584 276.291 36.544 276.819 36.544C277.355 36.544 277.799 36.616 278.151 36.76C278.511 36.896 278.795 37.092 279.003 37.348C279.211 37.604 279.359 37.908 279.447 38.26C279.535 38.612 279.579 39.004 279.579 39.436V43H277.791V39.652C277.791 39.076 277.715 38.668 277.563 38.428C277.411 38.188 277.127 38.068 276.711 38.068C276.583 38.068 276.447 38.076 276.303 38.092C276.159 38.1 276.031 38.112 275.919 38.128V43H274.131V36.904ZM281.197 43V33.976L282.985 33.688V36.712C283.105 36.672 283.257 36.636 283.441 36.604C283.633 36.564 283.817 36.544 283.993 36.544C284.505 36.544 284.929 36.616 285.265 36.76C285.609 36.896 285.881 37.092 286.081 37.348C286.289 37.604 286.433 37.908 286.513 38.26C286.601 38.612 286.645 39.004 286.645 39.436V43H284.857V39.652C284.857 39.076 284.781 38.668 284.629 38.428C284.485 38.188 284.213 38.068 283.813 38.068C283.653 38.068 283.501 38.084 283.357 38.116C283.221 38.14 283.097 38.168 282.985 38.2V43H281.197Z" fill="black"/>
</svg>
