<svg width="6" height="10" viewBox="0 0 6 10" fill="none" xmlns="http://www.w3.org/2000/svg">
<path d="M1.66767 9.99871C1.50169 9.99904 1.34084 9.94104 1.21304 9.83479C1.14111 9.77496 1.08165 9.70148 1.03806 9.61856C0.994482 9.53563 0.967633 9.4449 0.959055 9.35155C0.950477 9.25821 0.960338 9.16408 0.988074 9.07456C1.01581 8.98504 1.06087 8.90189 1.12069 8.82987L4.30314 5.00977L1.23435 1.18255C1.17534 1.10965 1.13128 1.02576 1.10469 0.935721C1.0781 0.845678 1.0695 0.751251 1.07941 0.657866C1.08931 0.564481 1.11751 0.473981 1.16238 0.391566C1.20726 0.309151 1.26793 0.236447 1.3409 0.177633C1.4144 0.112751 1.50047 0.0638109 1.59372 0.0338851C1.68696 0.00395926 1.78537 -0.00630633 1.88275 0.00373205C1.98014 0.0137704 2.07441 0.0438963 2.15964 0.092219C2.24487 0.140542 2.31923 0.206018 2.37804 0.284539L5.80912 4.56077C5.9136 4.6883 5.97072 4.84826 5.97072 5.01334C5.97072 5.17842 5.9136 5.33838 5.80912 5.46591L2.25728 9.74214C2.18602 9.82839 2.09549 9.89657 1.99305 9.94114C1.89061 9.98572 1.77913 10.0054 1.66767 9.99871Z" fill="black"/>
</svg>
