<svg width="25" height="17" viewBox="0 0 25 17" fill="none" xmlns="http://www.w3.org/2000/svg">
<path d="M24.849 7.86631C22.4952 3.27386 17.8355 0.166656 12.5 0.166656C7.1645 0.166656 2.50348 3.27603 0.151048 7.86674C0.0517611 8.06314 3.05176e-05 8.28014 3.05176e-05 8.50021C3.05176e-05 8.72028 0.0517611 8.93727 0.151048 9.13367C2.50478 13.7261 7.1645 16.8333 12.5 16.8333C17.8355 16.8333 22.4965 13.7239 24.849 9.13324C24.9483 8.93683 25 8.71984 25 8.49977C25 8.2797 24.9483 8.06271 24.849 7.86631V7.86631ZM12.5 14.75C11.2639 14.75 10.0555 14.3834 9.02769 13.6967C7.99988 13.0099 7.19881 12.0338 6.72576 10.8918C6.25271 9.74972 6.12894 8.49306 6.3701 7.28068C6.61126 6.06829 7.20651 4.95465 8.08059 4.08057C8.95467 3.20649 10.0683 2.61124 11.2807 2.37008C12.4931 2.12892 13.7497 2.2527 14.8918 2.72574C16.0338 3.19879 17.0099 3.99987 17.6967 5.02768C18.3835 6.05548 18.75 7.26386 18.75 8.49999C18.7504 9.32086 18.589 10.1338 18.2751 10.8922C17.9611 11.6507 17.5008 12.3399 16.9203 12.9203C16.3399 13.5007 15.6507 13.9611 14.8923 14.2751C14.1338 14.589 13.3209 14.7504 12.5 14.75V14.75ZM12.5 4.33332C12.1281 4.33852 11.7586 4.39385 11.4015 4.49782C11.6958 4.89785 11.8371 5.39013 11.7996 5.88538C11.7622 6.38063 11.5485 6.84606 11.1973 7.19726C10.8461 7.54845 10.3806 7.76216 9.8854 7.79963C9.39015 7.83709 8.89787 7.69583 8.49784 7.40147C8.27004 8.2407 8.31116 9.13023 8.61541 9.94487C8.91965 10.7595 9.4717 11.4582 10.1938 11.9427C10.916 12.4271 11.7719 12.6729 12.6411 12.6455C13.5102 12.618 14.3489 12.3187 15.039 11.7896C15.7291 11.2606 16.236 10.5284 16.4882 9.69616C16.7404 8.86395 16.7253 7.97359 16.445 7.15041C16.1647 6.32723 15.6333 5.61268 14.9256 5.10733C14.2179 4.60198 13.3696 4.33128 12.5 4.33332V4.33332Z" fill="black"/>
</svg>
