<svg width="24" height="25" viewBox="0 0 24 25" fill="none" xmlns="http://www.w3.org/2000/svg">
<path d="M22.8516 0H18.9941C18.4717 0 18.2129 0.629883 18.5791 1.00098L19.4043 1.82617L15.4639 5.7666C14.3799 5.08301 13.0957 4.6875 11.7188 4.6875C10.3418 4.6875 9.05762 5.08301 7.97363 5.7666L7.16797 4.96094L8.13477 3.99414C8.36426 3.76465 8.36426 3.39355 8.13477 3.16406L6.75293 1.78223C6.52344 1.55273 6.15234 1.55273 5.92285 1.78223L4.95605 2.74902L4.02832 1.82129L4.85352 0.996094C5.22949 0.629883 4.96582 0 4.44336 0H0.585938C0.263672 0 0 0.263672 0 0.585938V4.44336C0 4.96582 0.629883 5.22461 1.00098 4.8584L1.82617 4.0332L2.75391 4.96094L1.78711 5.92773C1.55762 6.15723 1.55762 6.52832 1.78711 6.75781L3.16895 8.13965C3.39844 8.36914 3.76953 8.36914 3.99902 8.13965L4.96582 7.17285L5.77148 7.97852C5.08301 9.05762 4.6875 10.3418 4.6875 11.7188C4.6875 15.0635 7.02637 17.8662 10.1562 18.5742V19.9219H8.39844C8.07617 19.9219 7.8125 20.1855 7.8125 20.5078V22.4609C7.8125 22.7832 8.07617 23.0469 8.39844 23.0469H10.1562V24.4141C10.1562 24.7363 10.4199 25 10.7422 25H12.6953C13.0176 25 13.2812 24.7363 13.2812 24.4141V23.0469H15.0391C15.3613 23.0469 15.625 22.7832 15.625 22.4609V20.5078C15.625 20.1855 15.3613 19.9219 15.0391 19.9219H13.2812V18.5742C16.4111 17.8613 18.75 15.0635 18.75 11.7188C18.75 10.3418 18.3545 9.05762 17.6709 7.97363L21.6113 4.0332L22.4365 4.8584C22.8076 5.22949 23.4375 4.96582 23.4375 4.44336V0.585938C23.4375 0.263672 23.1738 0 22.8516 0V0ZM11.7188 15.625C9.56543 15.625 7.8125 13.8721 7.8125 11.7188C7.8125 9.56543 9.56543 7.8125 11.7188 7.8125C13.8721 7.8125 15.625 9.56543 15.625 11.7188C15.625 13.8721 13.8721 15.625 11.7188 15.625Z" fill="black"/>
</svg>
