<svg width="16" height="17" viewBox="0 0 16 17" fill="none" xmlns="http://www.w3.org/2000/svg">
<g clip-path="url(#clip0_600_32)">
<path d="M12.6667 7.83333H3.33333C2.59695 7.83333 2 8.43028 2 9.16666V13.8333C2 14.5697 2.59695 15.1667 3.33333 15.1667H12.6667C13.403 15.1667 14 14.5697 14 13.8333V9.16666C14 8.43028 13.403 7.83333 12.6667 7.83333Z" stroke="#667085" stroke-width="2" stroke-linecap="round" stroke-linejoin="round"/>
<path d="M4.66667 7.83333V5.16666C4.66667 4.28261 5.01786 3.43476 5.64298 2.80964C6.2681 2.18452 7.11595 1.83333 8 1.83333C8.88406 1.83333 9.73191 2.18452 10.357 2.80964C10.9821 3.43476 11.3333 4.28261 11.3333 5.16666V7.83333" stroke="#667085" stroke-width="2" stroke-linecap="round" stroke-linejoin="round"/>
</g>
<defs>
<clipPath id="clip0_600_32">
<rect width="16" height="16" fill="white" transform="translate(0 0.5)"/>
</clipPath>
</defs>
</svg>
