<svg width="30" height="30" viewBox="0 0 30 30" fill="none" xmlns="http://www.w3.org/2000/svg">
<g clip-path="url(#clip0_234_464)">
<path d="M25.7143 1.875H4.28638C1.9192 1.875 0.000569203 3.55371 0.000435275 5.625L7.01105e-09 24.3223C-0.000133922 26.4434 1.91853 28.125 4.28571 28.125H19.8281C21.533 28.125 23.1683 27.532 24.3743 26.4773L28.1163 23.2025C29.3237 22.0957 30 20.7188 30 19.2246V5.625C30 3.5625 28.0714 1.875 25.7143 1.875ZM3.52835 25.0371C3.41116 24.9375 3.21429 24.7148 3.21429 24.375L3.21559 5.67773C3.21563 5.1082 3.69643 4.6875 4.28705 4.6875H25.7143C26.2951 4.6875 26.7857 5.11687 26.7857 5.625V16.875H20.8929C18.8237 16.875 17.1429 18.3457 17.1429 20.1562V25.3125H4.28571C3.89933 25.3125 3.64554 25.1426 3.52835 25.0371ZM22.1049 24.4863C21.6228 24.9082 21.0134 25.1719 20.3571 25.2656V20.1562C20.3571 19.8981 20.5978 19.6875 20.8929 19.6875H26.7342C26.6259 20.2624 26.3247 20.7937 25.8442 21.2139L22.1049 24.4863Z" fill="#FFA0A7"/>
</g>
<defs>
<clipPath id="clip0_234_464">
<rect width="30" height="30" fill="white"/>
</clipPath>
</defs>
</svg>
