<svg width="288" height="46" viewBox="0 0 288 46" fill="none" xmlns="http://www.w3.org/2000/svg">
<path d="M21.5 2.0835C15.75 2.0835 11.0834 6.75016 11.0834 12.5002C11.0834 18.2502 15.75 22.9168 21.5 22.9168C27.25 22.9168 31.9167 18.2502 31.9167 12.5002C31.9167 6.75016 27.25 2.0835 21.5 2.0835ZM19.4167 17.7085L14.2084 12.5002L15.6771 11.0314L19.4167 14.7606L27.323 6.85433L28.7917 8.3335L19.4167 17.7085Z" fill="#4285F4"/>
<line x1="44" y1="12.5" x2="124" y2="12.5" stroke="#979797"/>
<line x1="159" y1="12.5" x2="239" y2="12.5" stroke="#979797"/>
<circle cx="141.5" cy="12.5" r="5.5" fill="#D9D9D9"/>
<circle cx="256.5" cy="12.5" r="5.5" fill="#D9D9D9"/>
<path d="M5.79213 41.476C5.88013 41.484 5.98013 41.492 6.09213 41.5C6.21213 41.5 6.35213 41.5 6.51213 41.5C7.44813 41.5 8.14013 41.264 8.58813 40.792C9.04413 40.32 9.27213 39.668 9.27213 38.836C9.27213 37.964 9.05613 37.304 8.62413 36.856C8.19213 36.408 7.50813 36.184 6.57213 36.184C6.44413 36.184 6.31213 36.188 6.17613 36.196C6.04013 36.196 5.91213 36.204 5.79213 36.22V37.996H7.30413V39.376H5.79213V41.476ZM11.2041 38.836C11.2041 39.556 11.0921 40.184 10.8681 40.72C10.6441 41.256 10.3241 41.7 9.90813 42.052C9.50013 42.404 9.00013 42.668 8.40813 42.844C7.81613 43.02 7.15213 43.108 6.41613 43.108C6.08013 43.108 5.68813 43.092 5.24013 43.06C4.79213 43.036 4.35213 42.98 3.92013 42.892V39.376H2.94813V37.996H3.92013V34.792C4.35213 34.712 4.80013 34.66 5.26413 34.636C5.73613 34.604 6.14013 34.588 6.47613 34.588C7.18813 34.588 7.83213 34.668 8.40813 34.828C8.99213 34.988 9.49213 35.24 9.90813 35.584C10.3241 35.928 10.6441 36.368 10.8681 36.904C11.0921 37.44 11.2041 38.084 11.2041 38.836ZM15.0567 41.752C15.2327 41.752 15.4007 41.748 15.5607 41.74C15.7207 41.732 15.8487 41.72 15.9447 41.704V40.348C15.8727 40.332 15.7647 40.316 15.6207 40.3C15.4767 40.284 15.3447 40.276 15.2247 40.276C15.0567 40.276 14.8967 40.288 14.7447 40.312C14.6007 40.328 14.4727 40.364 14.3607 40.42C14.2487 40.476 14.1607 40.552 14.0967 40.648C14.0327 40.744 14.0007 40.864 14.0007 41.008C14.0007 41.288 14.0927 41.484 14.2767 41.596C14.4687 41.7 14.7287 41.752 15.0567 41.752ZM14.9127 36.52C15.4407 36.52 15.8807 36.58 16.2327 36.7C16.5847 36.82 16.8647 36.992 17.0727 37.216C17.2887 37.44 17.4407 37.712 17.5287 38.032C17.6167 38.352 17.6607 38.708 17.6607 39.1V42.82C17.4047 42.876 17.0487 42.94 16.5927 43.012C16.1367 43.092 15.5847 43.132 14.9367 43.132C14.5287 43.132 14.1567 43.096 13.8207 43.024C13.4927 42.952 13.2087 42.836 12.9687 42.676C12.7287 42.508 12.5447 42.292 12.4167 42.028C12.2887 41.764 12.2247 41.44 12.2247 41.056C12.2247 40.688 12.2967 40.376 12.4407 40.12C12.5927 39.864 12.7927 39.66 13.0407 39.508C13.2887 39.356 13.5727 39.248 13.8927 39.184C14.2127 39.112 14.5447 39.076 14.8887 39.076C15.1207 39.076 15.3247 39.088 15.5007 39.112C15.6847 39.128 15.8327 39.152 15.9447 39.184V39.016C15.9447 38.712 15.8527 38.468 15.6687 38.284C15.4847 38.1 15.1647 38.008 14.7087 38.008C14.4047 38.008 14.1047 38.032 13.8087 38.08C13.5127 38.12 13.2567 38.18 13.0407 38.26L12.8127 36.82C12.9167 36.788 13.0447 36.756 13.1967 36.724C13.3567 36.684 13.5287 36.652 13.7127 36.628C13.8967 36.596 14.0887 36.572 14.2887 36.556C14.4967 36.532 14.7047 36.52 14.9127 36.52ZM17.2647 34.492C17.2167 34.612 17.1487 34.744 17.0607 34.888C16.9807 35.032 16.8807 35.168 16.7607 35.296C16.6407 35.416 16.5047 35.516 16.3527 35.596C16.2007 35.676 16.0327 35.716 15.8487 35.716C15.7047 35.716 15.5687 35.696 15.4407 35.656C15.3207 35.608 15.2007 35.56 15.0807 35.512C14.9607 35.456 14.8407 35.408 14.7207 35.368C14.6007 35.32 14.4767 35.296 14.3487 35.296C14.1887 35.296 14.0567 35.348 13.9527 35.452C13.8487 35.556 13.7647 35.676 13.7007 35.812L12.8247 35.236C12.8727 35.116 12.9367 34.984 13.0167 34.84C13.1047 34.696 13.2087 34.564 13.3287 34.444C13.4487 34.316 13.5847 34.212 13.7367 34.132C13.8887 34.052 14.0567 34.012 14.2407 34.012C14.3847 34.012 14.5167 34.036 14.6367 34.084C14.7647 34.124 14.8887 34.172 15.0087 34.228C15.1287 34.276 15.2447 34.324 15.3567 34.372C15.4767 34.412 15.6047 34.432 15.7407 34.432C15.9007 34.432 16.0327 34.38 16.1367 34.276C16.2407 34.172 16.3247 34.052 16.3887 33.916L17.2647 34.492ZM27.7283 34.732H28.4723V35.848H27.7283V42.796C27.5683 42.844 27.3843 42.892 27.1763 42.94C26.9683 42.98 26.7483 43.016 26.5163 43.048C26.2923 43.08 26.0603 43.104 25.8203 43.12C25.5883 43.144 25.3643 43.156 25.1483 43.156C24.6283 43.156 24.1643 43.08 23.7563 42.928C23.3483 42.776 23.0043 42.56 22.7243 42.28C22.4443 42 22.2283 41.664 22.0763 41.272C21.9323 40.88 21.8603 40.444 21.8603 39.964C21.8603 39.476 21.9243 39.036 22.0523 38.644C22.1803 38.244 22.3643 37.904 22.6043 37.624C22.8443 37.336 23.1363 37.116 23.4803 36.964C23.8323 36.804 24.2323 36.724 24.6803 36.724C24.9283 36.724 25.1483 36.748 25.3403 36.796C25.5403 36.844 25.7403 36.912 25.9403 37V35.848H24.2243V34.732H25.9403V33.976L27.7283 33.688V34.732ZM23.6843 39.88C23.6843 40.384 23.8083 40.804 24.0563 41.14C24.3123 41.468 24.6803 41.632 25.1603 41.632C25.4803 41.632 25.7403 41.612 25.9403 41.572V38.488C25.8283 38.416 25.6803 38.356 25.4963 38.308C25.3203 38.26 25.1403 38.236 24.9563 38.236C24.5243 38.236 24.2043 38.38 23.9963 38.668C23.7883 38.948 23.6843 39.352 23.6843 39.88ZM32.2217 36.316C33.1017 36.316 33.7737 36.508 34.2377 36.892C34.7097 37.268 34.9457 37.848 34.9457 38.632V43H33.6977L33.3497 42.112H33.3017C33.1177 42.344 32.9257 42.536 32.7257 42.688C32.5337 42.84 32.3097 42.948 32.0537 43.012C31.8057 43.084 31.4977 43.12 31.1297 43.12C30.7457 43.12 30.3977 43.048 30.0857 42.904C29.7817 42.752 29.5417 42.524 29.3657 42.22C29.1897 41.908 29.1017 41.516 29.1017 41.044C29.1017 40.348 29.3457 39.836 29.8337 39.508C30.3217 39.172 31.0537 38.988 32.0297 38.956L33.1697 38.92V38.632C33.1697 38.288 33.0777 38.036 32.8937 37.876C32.7177 37.716 32.4697 37.636 32.1497 37.636C31.8297 37.636 31.5177 37.684 31.2137 37.78C30.9097 37.868 30.6057 37.98 30.3017 38.116L29.7137 36.904C30.0657 36.72 30.4537 36.576 30.8777 36.472C31.3097 36.368 31.7577 36.316 32.2217 36.316ZM32.4737 39.988C31.8977 40.004 31.4977 40.108 31.2737 40.3C31.0497 40.492 30.9377 40.744 30.9377 41.056C30.9377 41.328 31.0177 41.524 31.1777 41.644C31.3377 41.756 31.5457 41.812 31.8017 41.812C32.1857 41.812 32.5097 41.7 32.7737 41.476C33.0377 41.244 33.1697 40.92 33.1697 40.504V39.964L32.4737 39.988ZM34.5617 33.748C34.5377 34.132 34.4217 34.476 34.2137 34.78C34.0137 35.076 33.7457 35.308 33.4097 35.476C33.0737 35.644 32.6817 35.728 32.2337 35.728C31.5457 35.728 31.0017 35.548 30.6017 35.188C30.2017 34.828 29.9857 34.348 29.9537 33.748H30.9497C30.9737 33.972 31.0417 34.136 31.1537 34.24C31.2737 34.344 31.4297 34.412 31.6217 34.444C31.8137 34.468 32.0217 34.48 32.2457 34.48C32.4377 34.48 32.6257 34.464 32.8097 34.432C33.0017 34.392 33.1657 34.32 33.3017 34.216C33.4377 34.112 33.5177 33.956 33.5417 33.748H34.5617ZM32.0177 45.52C31.7457 45.52 31.5137 45.456 31.3217 45.328C31.1377 45.2 31.0457 44.972 31.0457 44.644C31.0457 44.308 31.1377 44.076 31.3217 43.948C31.5137 43.828 31.7457 43.768 32.0177 43.768C32.2817 43.768 32.5097 43.828 32.7017 43.948C32.8937 44.076 32.9897 44.308 32.9897 44.644C32.9897 44.972 32.8937 45.2 32.7017 45.328C32.5097 45.456 32.2817 45.52 32.0177 45.52ZM36.6198 35.116L38.4078 34.828V36.688H40.5558V38.176H38.4078V40.396C38.4078 40.772 38.4718 41.072 38.5998 41.296C38.7358 41.52 39.0038 41.632 39.4038 41.632C39.5958 41.632 39.7918 41.616 39.9918 41.584C40.1998 41.544 40.3878 41.492 40.5558 41.428L40.8078 42.82C40.5918 42.908 40.3518 42.984 40.0878 43.048C39.8238 43.112 39.4998 43.144 39.1158 43.144C38.6278 43.144 38.2238 43.08 37.9038 42.952C37.5838 42.816 37.3278 42.632 37.1358 42.4C36.9438 42.16 36.8078 41.872 36.7278 41.536C36.6558 41.2 36.6198 40.828 36.6198 40.42V35.116Z" fill="black"/>
<path d="M128.737 43.18C128.153 43.18 127.621 43.084 127.141 42.892C126.661 42.7 126.249 42.42 125.905 42.052C125.561 41.684 125.293 41.232 125.101 40.696C124.917 40.152 124.825 39.532 124.825 38.836C124.825 38.14 124.929 37.524 125.137 36.988C125.353 36.444 125.641 35.988 126.001 35.62C126.361 35.252 126.781 34.972 127.261 34.78C127.741 34.588 128.253 34.492 128.797 34.492C129.141 34.492 129.449 34.516 129.721 34.564C130.001 34.612 130.241 34.668 130.441 34.732C130.649 34.796 130.817 34.86 130.945 34.924C131.073 34.988 131.161 35.036 131.209 35.068L130.873 36.028C130.801 35.98 130.697 35.928 130.561 35.872C130.425 35.816 130.269 35.76 130.093 35.704C129.925 35.648 129.737 35.604 129.529 35.572C129.329 35.532 129.125 35.512 128.917 35.512C128.477 35.512 128.081 35.588 127.729 35.74C127.377 35.892 127.077 36.112 126.829 36.4C126.581 36.688 126.389 37.04 126.253 37.456C126.125 37.864 126.061 38.324 126.061 38.836C126.061 39.332 126.117 39.784 126.229 40.192C126.349 40.6 126.525 40.952 126.757 41.248C126.989 41.536 127.277 41.76 127.621 41.92C127.973 42.08 128.381 42.16 128.845 42.16C129.381 42.16 129.825 42.104 130.177 41.992C130.529 41.88 130.793 41.78 130.969 41.692L131.269 42.652C131.213 42.692 131.113 42.744 130.969 42.808C130.825 42.864 130.645 42.92 130.429 42.976C130.213 43.032 129.961 43.08 129.673 43.12C129.385 43.16 129.073 43.18 128.737 43.18ZM132.53 43V33.88L133.646 33.688V36.88C133.854 36.8 134.074 36.74 134.306 36.7C134.546 36.652 134.782 36.628 135.014 36.628C135.51 36.628 135.922 36.7 136.25 36.844C136.578 36.98 136.838 37.176 137.03 37.432C137.23 37.68 137.37 37.98 137.45 38.332C137.53 38.684 137.57 39.072 137.57 39.496V43H136.454V39.736C136.454 39.352 136.426 39.024 136.37 38.752C136.322 38.48 136.238 38.26 136.118 38.092C135.998 37.924 135.838 37.804 135.638 37.732C135.438 37.652 135.19 37.612 134.894 37.612C134.774 37.612 134.65 37.62 134.522 37.636C134.394 37.652 134.27 37.672 134.15 37.696C134.038 37.712 133.934 37.732 133.838 37.756C133.75 37.78 133.686 37.8 133.646 37.816V43H132.53ZM144.354 42.82C144.098 42.884 143.758 42.952 143.334 43.024C142.918 43.096 142.434 43.132 141.882 43.132C141.402 43.132 140.998 43.064 140.67 42.928C140.342 42.784 140.078 42.584 139.878 42.328C139.678 42.072 139.534 41.772 139.446 41.428C139.358 41.076 139.314 40.688 139.314 40.264V36.76H140.43V40.024C140.43 40.784 140.55 41.328 140.79 41.656C141.03 41.984 141.434 42.148 142.002 42.148C142.122 42.148 142.246 42.144 142.374 42.136C142.502 42.128 142.622 42.12 142.734 42.112C142.846 42.096 142.946 42.084 143.034 42.076C143.13 42.06 143.198 42.044 143.238 42.028V36.76H144.354V42.82ZM149.252 34.048C149.38 34.224 149.516 34.404 149.66 34.588C149.804 34.764 149.948 34.936 150.092 35.104C150.244 35.272 150.388 35.432 150.524 35.584V35.728H149.936C149.736 35.592 149.532 35.444 149.324 35.284C149.116 35.116 148.908 34.94 148.7 34.756C148.492 34.94 148.284 35.116 148.076 35.284C147.868 35.444 147.664 35.592 147.464 35.728H146.876V35.584C147.012 35.432 147.152 35.272 147.296 35.104C147.448 34.936 147.596 34.764 147.74 34.588C147.892 34.404 148.028 34.224 148.148 34.048H149.252ZM150.38 32.548C150.748 32.548 151.032 32.616 151.232 32.752C151.432 32.888 151.532 33.096 151.532 33.376C151.532 33.608 151.46 33.784 151.316 33.904C151.172 34.016 150.996 34.096 150.788 34.144L150.752 34.612H150.26L150.2 33.856C150.432 33.816 150.608 33.768 150.728 33.712C150.848 33.648 150.908 33.544 150.908 33.4C150.908 33.264 150.852 33.172 150.74 33.124C150.636 33.068 150.5 33.04 150.332 33.04C150.252 33.04 150.172 33.044 150.092 33.052C150.02 33.052 149.96 33.06 149.912 33.076V32.584C149.96 32.568 150.024 32.56 150.104 32.56C150.184 32.552 150.276 32.548 150.38 32.548ZM148.772 36.46C149.556 36.46 150.136 36.632 150.512 36.976C150.888 37.32 151.076 37.868 151.076 38.62V43H150.308L150.104 42.088H150.056C149.872 42.32 149.68 42.516 149.48 42.676C149.288 42.828 149.064 42.94 148.808 43.012C148.56 43.084 148.256 43.12 147.896 43.12C147.512 43.12 147.164 43.052 146.852 42.916C146.548 42.78 146.308 42.572 146.132 42.292C145.956 42.004 145.868 41.644 145.868 41.212C145.868 40.572 146.12 40.08 146.624 39.736C147.128 39.384 147.904 39.192 148.952 39.16L150.044 39.124V38.74C150.044 38.204 149.928 37.832 149.696 37.624C149.464 37.416 149.136 37.312 148.712 37.312C148.376 37.312 148.056 37.364 147.752 37.468C147.448 37.564 147.164 37.676 146.9 37.804L146.576 37.012C146.856 36.86 147.188 36.732 147.572 36.628C147.956 36.516 148.356 36.46 148.772 36.46ZM149.084 39.892C148.284 39.924 147.728 40.052 147.416 40.276C147.112 40.5 146.96 40.816 146.96 41.224C146.96 41.584 147.068 41.848 147.284 42.016C147.508 42.184 147.792 42.268 148.136 42.268C148.68 42.268 149.132 42.12 149.492 41.824C149.852 41.52 150.032 41.056 150.032 40.432V39.856L149.084 39.892ZM153.003 36.94C153.259 36.876 153.599 36.808 154.023 36.736C154.447 36.664 154.935 36.628 155.487 36.628C155.983 36.628 156.395 36.7 156.723 36.844C157.051 36.98 157.311 37.176 157.503 37.432C157.703 37.68 157.843 37.98 157.923 38.332C158.003 38.684 158.043 39.072 158.043 39.496V43H156.927V39.736C156.927 39.352 156.899 39.024 156.843 38.752C156.795 38.48 156.711 38.26 156.591 38.092C156.471 37.924 156.311 37.804 156.111 37.732C155.911 37.652 155.663 37.612 155.367 37.612C155.247 37.612 155.123 37.616 154.995 37.624C154.867 37.632 154.743 37.644 154.623 37.66C154.511 37.668 154.407 37.68 154.311 37.696C154.223 37.712 154.159 37.724 154.119 37.732V43H153.003V36.94ZM163.787 37.036C163.923 36.948 164.127 36.856 164.399 36.76C164.679 36.664 164.999 36.616 165.359 36.616C165.807 36.616 166.203 36.696 166.547 36.856C166.899 37.016 167.195 37.24 167.435 37.528C167.675 37.816 167.855 38.16 167.975 38.56C168.103 38.96 168.167 39.4 168.167 39.88C168.167 40.384 168.091 40.84 167.939 41.248C167.795 41.648 167.587 41.988 167.315 42.268C167.043 42.548 166.715 42.764 166.331 42.916C165.947 43.068 165.515 43.144 165.035 43.144C164.515 43.144 164.055 43.108 163.655 43.036C163.255 42.964 162.927 42.892 162.671 42.82V33.88L163.787 33.688V37.036ZM163.787 42.028C163.899 42.06 164.055 42.092 164.255 42.124C164.463 42.148 164.719 42.16 165.023 42.16C165.623 42.16 166.103 41.964 166.463 41.572C166.823 41.172 167.003 40.608 167.003 39.88C167.003 39.56 166.971 39.26 166.907 38.98C166.843 38.7 166.739 38.46 166.595 38.26C166.451 38.052 166.263 37.892 166.031 37.78C165.807 37.66 165.535 37.6 165.215 37.6C164.911 37.6 164.631 37.652 164.375 37.756C164.119 37.86 163.923 37.968 163.787 38.08V42.028ZM170.853 36.568V43H169.797V36.568H170.853ZM170.337 34.156C170.497 34.156 170.637 34.212 170.757 34.324C170.885 34.428 170.949 34.596 170.949 34.828C170.949 35.052 170.885 35.22 170.757 35.332C170.637 35.444 170.497 35.5 170.337 35.5C170.161 35.5 170.013 35.444 169.893 35.332C169.773 35.22 169.713 35.052 169.713 34.828C169.713 34.596 169.773 34.428 169.893 34.324C170.013 34.212 170.161 34.156 170.337 34.156ZM170.337 45.112C170.169 45.112 170.021 45.056 169.893 44.944C169.773 44.832 169.713 44.664 169.713 44.44C169.713 44.208 169.773 44.036 169.893 43.924C170.021 43.82 170.169 43.768 170.337 43.768C170.505 43.768 170.649 43.82 170.769 43.924C170.897 44.036 170.961 44.208 170.961 44.44C170.961 44.664 170.897 44.832 170.769 44.944C170.649 45.056 170.505 45.112 170.337 45.112Z" fill="#979797"/>
<path d="M229.176 34.684H230.34V43H229.176V39.16H225.108V43H223.944V34.684H225.108V38.152H229.176V34.684ZM237.841 39.88C237.841 40.376 237.769 40.824 237.625 41.224C237.481 41.624 237.277 41.968 237.013 42.256C236.757 42.544 236.449 42.768 236.089 42.928C235.729 43.08 235.337 43.156 234.913 43.156C234.489 43.156 234.097 43.08 233.737 42.928C233.377 42.768 233.065 42.544 232.801 42.256C232.545 41.968 232.345 41.624 232.201 41.224C232.057 40.824 231.985 40.376 231.985 39.88C231.985 39.392 232.057 38.948 232.201 38.548C232.345 38.14 232.545 37.792 232.801 37.504C233.065 37.216 233.377 36.996 233.737 36.844C234.097 36.684 234.489 36.604 234.913 36.604C235.337 36.604 235.729 36.684 236.089 36.844C236.449 36.996 236.757 37.216 237.013 37.504C237.277 37.792 237.481 38.14 237.625 38.548C237.769 38.948 237.841 39.392 237.841 39.88ZM236.677 39.88C236.677 39.176 236.517 38.62 236.197 38.212C235.885 37.796 235.457 37.588 234.913 37.588C234.369 37.588 233.937 37.796 233.617 38.212C233.305 38.62 233.149 39.176 233.149 39.88C233.149 40.584 233.305 41.144 233.617 41.56C233.937 41.968 234.369 42.172 234.913 42.172C235.457 42.172 235.885 41.968 236.197 41.56C236.517 41.144 236.677 40.584 236.677 39.88ZM241.523 42.196C241.787 42.196 242.019 42.192 242.219 42.184C242.427 42.168 242.599 42.144 242.735 42.112V40.252C242.655 40.212 242.523 40.18 242.339 40.156C242.163 40.124 241.947 40.108 241.691 40.108C241.523 40.108 241.343 40.12 241.151 40.144C240.967 40.168 240.795 40.22 240.635 40.3C240.483 40.372 240.355 40.476 240.251 40.612C240.147 40.74 240.095 40.912 240.095 41.128C240.095 41.528 240.223 41.808 240.479 41.968C240.735 42.12 241.083 42.196 241.523 42.196ZM241.427 36.604C241.875 36.604 242.251 36.664 242.555 36.784C242.867 36.896 243.115 37.06 243.299 37.276C243.491 37.484 243.627 37.736 243.707 38.032C243.787 38.32 243.827 38.64 243.827 38.992V42.892C243.731 42.908 243.595 42.932 243.419 42.964C243.251 42.988 243.059 43.012 242.843 43.036C242.627 43.06 242.391 43.08 242.135 43.096C241.887 43.12 241.639 43.132 241.391 43.132C241.039 43.132 240.715 43.096 240.419 43.024C240.123 42.952 239.867 42.84 239.651 42.688C239.435 42.528 239.267 42.32 239.147 42.064C239.027 41.808 238.967 41.5 238.967 41.14C238.967 40.796 239.035 40.5 239.171 40.252C239.315 40.004 239.507 39.804 239.747 39.652C239.987 39.5 240.267 39.388 240.587 39.316C240.907 39.244 241.243 39.208 241.595 39.208C241.707 39.208 241.823 39.216 241.943 39.232C242.063 39.24 242.175 39.256 242.279 39.28C242.391 39.296 242.487 39.312 242.567 39.328C242.647 39.344 242.703 39.356 242.735 39.364V39.052C242.735 38.868 242.715 38.688 242.675 38.512C242.635 38.328 242.563 38.168 242.459 38.032C242.355 37.888 242.211 37.776 242.027 37.696C241.851 37.608 241.619 37.564 241.331 37.564C240.963 37.564 240.639 37.592 240.359 37.648C240.087 37.696 239.883 37.748 239.747 37.804L239.615 36.88C239.759 36.816 239.999 36.756 240.335 36.7C240.671 36.636 241.035 36.604 241.427 36.604ZM240.887 33.688L242.423 35.536L241.859 36.04L240.167 34.396L240.887 33.688ZM245.681 36.94C245.937 36.876 246.277 36.808 246.701 36.736C247.125 36.664 247.613 36.628 248.165 36.628C248.661 36.628 249.073 36.7 249.401 36.844C249.729 36.98 249.989 37.176 250.181 37.432C250.381 37.68 250.521 37.98 250.601 38.332C250.681 38.684 250.721 39.072 250.721 39.496V43H249.605V39.736C249.605 39.352 249.577 39.024 249.521 38.752C249.473 38.48 249.389 38.26 249.269 38.092C249.149 37.924 248.989 37.804 248.789 37.732C248.589 37.652 248.341 37.612 248.045 37.612C247.925 37.612 247.801 37.616 247.673 37.624C247.545 37.632 247.421 37.644 247.301 37.66C247.189 37.668 247.085 37.68 246.989 37.696C246.901 37.712 246.837 37.724 246.797 37.732V43H245.681V36.94ZM256.393 36.76H258.757V37.696H256.393V40.576C256.393 40.888 256.417 41.148 256.465 41.356C256.513 41.556 256.585 41.716 256.681 41.836C256.777 41.948 256.897 42.028 257.041 42.076C257.185 42.124 257.353 42.148 257.545 42.148C257.881 42.148 258.149 42.112 258.349 42.04C258.557 41.96 258.701 41.904 258.781 41.872L258.997 42.796C258.885 42.852 258.689 42.92 258.409 43C258.129 43.088 257.809 43.132 257.449 43.132C257.025 43.132 256.673 43.08 256.393 42.976C256.121 42.864 255.901 42.7 255.733 42.484C255.565 42.268 255.445 42.004 255.373 41.692C255.309 41.372 255.277 41.004 255.277 40.588V35.02L256.393 34.828V36.76ZM260.177 43V33.88L261.293 33.688V36.88C261.501 36.8 261.721 36.74 261.953 36.7C262.193 36.652 262.429 36.628 262.661 36.628C263.157 36.628 263.569 36.7 263.897 36.844C264.225 36.98 264.485 37.176 264.677 37.432C264.877 37.68 265.017 37.98 265.097 38.332C265.177 38.684 265.217 39.072 265.217 39.496V43H264.101V39.736C264.101 39.352 264.073 39.024 264.017 38.752C263.969 38.48 263.885 38.26 263.765 38.092C263.645 37.924 263.485 37.804 263.285 37.732C263.085 37.652 262.837 37.612 262.541 37.612C262.421 37.612 262.297 37.62 262.169 37.636C262.041 37.652 261.917 37.672 261.797 37.696C261.685 37.712 261.581 37.732 261.485 37.756C261.397 37.78 261.333 37.8 261.293 37.816V43H260.177ZM269.144 42.196C269.408 42.196 269.64 42.192 269.84 42.184C270.048 42.168 270.22 42.144 270.356 42.112V40.252C270.276 40.212 270.144 40.18 269.96 40.156C269.784 40.124 269.568 40.108 269.312 40.108C269.144 40.108 268.964 40.12 268.772 40.144C268.588 40.168 268.416 40.22 268.256 40.3C268.104 40.372 267.976 40.476 267.872 40.612C267.768 40.74 267.716 40.912 267.716 41.128C267.716 41.528 267.844 41.808 268.1 41.968C268.356 42.12 268.704 42.196 269.144 42.196ZM269.048 36.604C269.496 36.604 269.872 36.664 270.176 36.784C270.488 36.896 270.736 37.06 270.92 37.276C271.112 37.484 271.248 37.736 271.328 38.032C271.408 38.32 271.448 38.64 271.448 38.992V42.892C271.352 42.908 271.216 42.932 271.04 42.964C270.872 42.988 270.68 43.012 270.464 43.036C270.248 43.06 270.012 43.08 269.756 43.096C269.508 43.12 269.26 43.132 269.012 43.132C268.66 43.132 268.336 43.096 268.04 43.024C267.744 42.952 267.488 42.84 267.272 42.688C267.056 42.528 266.888 42.32 266.768 42.064C266.648 41.808 266.588 41.5 266.588 41.14C266.588 40.796 266.656 40.5 266.792 40.252C266.936 40.004 267.128 39.804 267.368 39.652C267.608 39.5 267.888 39.388 268.208 39.316C268.528 39.244 268.864 39.208 269.216 39.208C269.328 39.208 269.444 39.216 269.564 39.232C269.684 39.24 269.796 39.256 269.9 39.28C270.012 39.296 270.108 39.312 270.188 39.328C270.268 39.344 270.324 39.356 270.356 39.364V39.052C270.356 38.868 270.336 38.688 270.296 38.512C270.256 38.328 270.184 38.168 270.08 38.032C269.976 37.888 269.832 37.776 269.648 37.696C269.472 37.608 269.24 37.564 268.952 37.564C268.584 37.564 268.26 37.592 267.98 37.648C267.708 37.696 267.504 37.748 267.368 37.804L267.236 36.88C267.38 36.816 267.62 36.756 267.956 36.7C268.292 36.636 268.656 36.604 269.048 36.604ZM268.508 33.688L270.044 35.536L269.48 36.04L267.788 34.396L268.508 33.688ZM273.302 36.94C273.558 36.876 273.898 36.808 274.322 36.736C274.746 36.664 275.234 36.628 275.786 36.628C276.282 36.628 276.694 36.7 277.022 36.844C277.35 36.98 277.61 37.176 277.802 37.432C278.002 37.68 278.142 37.98 278.222 38.332C278.302 38.684 278.342 39.072 278.342 39.496V43H277.226V39.736C277.226 39.352 277.198 39.024 277.142 38.752C277.094 38.48 277.01 38.26 276.89 38.092C276.77 37.924 276.61 37.804 276.41 37.732C276.21 37.652 275.962 37.612 275.666 37.612C275.546 37.612 275.422 37.616 275.294 37.624C275.166 37.632 275.042 37.644 274.922 37.66C274.81 37.668 274.706 37.68 274.61 37.696C274.522 37.712 274.458 37.724 274.418 37.732V43H273.302V36.94ZM280.192 43V33.88L281.308 33.688V36.88C281.516 36.8 281.736 36.74 281.968 36.7C282.208 36.652 282.444 36.628 282.676 36.628C283.172 36.628 283.584 36.7 283.912 36.844C284.24 36.98 284.5 37.176 284.692 37.432C284.892 37.68 285.032 37.98 285.112 38.332C285.192 38.684 285.232 39.072 285.232 39.496V43H284.116V39.736C284.116 39.352 284.088 39.024 284.032 38.752C283.984 38.48 283.9 38.26 283.78 38.092C283.66 37.924 283.5 37.804 283.3 37.732C283.1 37.652 282.852 37.612 282.556 37.612C282.436 37.612 282.312 37.62 282.184 37.636C282.056 37.652 281.932 37.672 281.812 37.696C281.7 37.712 281.596 37.732 281.5 37.756C281.412 37.78 281.348 37.8 281.308 37.816V43H280.192Z" fill="#979797"/>
</svg>
