<svg width="288" height="46" viewBox="0 0 288 46" fill="none" xmlns="http://www.w3.org/2000/svg">
<path d="M142.5 2.0835C136.75 2.0835 132.083 6.75016 132.083 12.5002C132.083 18.2502 136.75 22.9168 142.5 22.9168C148.25 22.9168 152.917 18.2502 152.917 12.5002C152.917 6.75016 148.25 2.0835 142.5 2.0835ZM140.417 17.7085L135.208 12.5002L136.677 11.0314L140.417 14.7606L148.323 6.85433L149.792 8.3335L140.417 17.7085Z" fill="#4285F4"/>
<line x1="44" y1="12.5" x2="124" y2="12.5" stroke="#979797"/>
<line x1="159" y1="12.5" x2="239" y2="12.5" stroke="#979797"/>
<circle cx="21.5" cy="12.5" r="5.5" fill="#D9D9D9"/>
<circle cx="256.5" cy="12.5" r="5.5" fill="#D9D9D9"/>
<path d="M11.9105 38.836C11.9105 39.556 11.7985 40.184 11.5745 40.72C11.3505 41.248 11.0345 41.688 10.6265 42.04C10.2185 42.384 9.73053 42.644 9.16253 42.82C8.59453 42.988 7.97053 43.072 7.29053 43.072C6.95453 43.072 6.58253 43.056 6.17453 43.024C5.77453 43 5.41053 42.948 5.08253 42.868V39.112H4.12253V38.212H5.08253V34.804C5.41053 34.724 5.77453 34.672 6.17453 34.648C6.58253 34.616 6.95453 34.6 7.29053 34.6C7.97053 34.6 8.59453 34.688 9.16253 34.864C9.73053 35.032 10.2185 35.292 10.6265 35.644C11.0345 35.988 11.3505 36.428 11.5745 36.964C11.7985 37.492 11.9105 38.116 11.9105 38.836ZM7.38653 42.052C8.49053 42.052 9.31453 41.772 9.85853 41.212C10.4025 40.644 10.6745 39.852 10.6745 38.836C10.6745 37.82 10.4025 37.032 9.85853 36.472C9.31453 35.904 8.49053 35.62 7.38653 35.62C7.05853 35.62 6.80253 35.624 6.61853 35.632C6.44253 35.64 6.31853 35.648 6.24653 35.656V38.212H7.80653V39.112H6.24653V42.016C6.31853 42.024 6.44253 42.032 6.61853 42.04C6.80253 42.048 7.05853 42.052 7.38653 42.052ZM15.5095 42.196C15.7735 42.196 16.0055 42.192 16.2055 42.184C16.4135 42.168 16.5855 42.144 16.7215 42.112V40.252C16.6415 40.212 16.5095 40.18 16.3255 40.156C16.1495 40.124 15.9335 40.108 15.6775 40.108C15.5095 40.108 15.3295 40.12 15.1375 40.144C14.9535 40.168 14.7815 40.22 14.6215 40.3C14.4695 40.372 14.3415 40.476 14.2375 40.612C14.1335 40.74 14.0815 40.912 14.0815 41.128C14.0815 41.528 14.2095 41.808 14.4655 41.968C14.7215 42.12 15.0695 42.196 15.5095 42.196ZM15.4135 36.604C15.8615 36.604 16.2375 36.664 16.5415 36.784C16.8535 36.896 17.1015 37.06 17.2855 37.276C17.4775 37.484 17.6135 37.736 17.6935 38.032C17.7735 38.32 17.8135 38.64 17.8135 38.992V42.892C17.7175 42.908 17.5815 42.932 17.4055 42.964C17.2375 42.988 17.0455 43.012 16.8295 43.036C16.6135 43.06 16.3775 43.08 16.1215 43.096C15.8735 43.12 15.6255 43.132 15.3775 43.132C15.0255 43.132 14.7015 43.096 14.4055 43.024C14.1095 42.952 13.8535 42.84 13.6375 42.688C13.4215 42.528 13.2535 42.32 13.1335 42.064C13.0135 41.808 12.9535 41.5 12.9535 41.14C12.9535 40.796 13.0215 40.5 13.1575 40.252C13.3015 40.004 13.4935 39.804 13.7335 39.652C13.9735 39.5 14.2535 39.388 14.5735 39.316C14.8935 39.244 15.2295 39.208 15.5815 39.208C15.6935 39.208 15.8095 39.216 15.9295 39.232C16.0495 39.24 16.1615 39.256 16.2655 39.28C16.3775 39.296 16.4735 39.312 16.5535 39.328C16.6335 39.344 16.6895 39.356 16.7215 39.364V39.052C16.7215 38.868 16.7015 38.688 16.6615 38.512C16.6215 38.328 16.5495 38.168 16.4455 38.032C16.3415 37.888 16.1975 37.776 16.0135 37.696C15.8375 37.608 15.6055 37.564 15.3175 37.564C14.9495 37.564 14.6255 37.592 14.3455 37.648C14.0735 37.696 13.8695 37.748 13.7335 37.804L13.6015 36.88C13.7455 36.816 13.9855 36.756 14.3215 36.7C14.6575 36.636 15.0215 36.604 15.4135 36.604ZM17.5735 34.468C17.5335 34.564 17.4775 34.676 17.4055 34.804C17.3415 34.932 17.2575 35.052 17.1535 35.164C17.0495 35.268 16.9255 35.36 16.7815 35.44C16.6455 35.512 16.4935 35.548 16.3255 35.548C16.1655 35.548 16.0135 35.52 15.8695 35.464C15.7335 35.408 15.6015 35.348 15.4735 35.284C15.3375 35.22 15.2215 35.172 15.1255 35.14C15.0295 35.108 14.9375 35.092 14.8495 35.092C14.7135 35.092 14.5855 35.148 14.4655 35.26C14.3535 35.372 14.2655 35.492 14.2015 35.62L13.6255 35.332C13.6575 35.236 13.7095 35.124 13.7815 34.996C13.8535 34.868 13.9415 34.752 14.0455 34.648C14.1495 34.536 14.2695 34.444 14.4055 34.372C14.5495 34.292 14.7055 34.252 14.8735 34.252C15.0335 34.252 15.1815 34.28 15.3175 34.336C15.4615 34.392 15.5975 34.452 15.7255 34.516C15.8615 34.58 15.9775 34.628 16.0735 34.66C16.1695 34.692 16.2615 34.708 16.3495 34.708C16.4855 34.708 16.6095 34.652 16.7215 34.54C16.8415 34.428 16.9335 34.308 16.9975 34.18L17.5735 34.468ZM26.4764 38.128C26.3404 38.016 26.1444 37.908 25.8884 37.804C25.6324 37.7 25.3524 37.648 25.0484 37.648C24.7284 37.648 24.4524 37.704 24.2204 37.816C23.9964 37.928 23.8124 38.084 23.6684 38.284C23.5244 38.484 23.4204 38.724 23.3564 39.004C23.2924 39.276 23.2604 39.572 23.2604 39.892C23.2604 40.62 23.4404 41.18 23.8004 41.572C24.1604 41.964 24.6404 42.16 25.2404 42.16C25.5444 42.16 25.7964 42.148 25.9964 42.124C26.2044 42.092 26.3644 42.06 26.4764 42.028V38.128ZM26.4764 33.88L27.5924 33.688V34.804H28.4804V35.632H27.5924V42.82C27.3364 42.892 27.0084 42.964 26.6084 43.036C26.2084 43.108 25.7484 43.144 25.2284 43.144C24.7484 43.144 24.3164 43.072 23.9324 42.928C23.5484 42.776 23.2204 42.56 22.9484 42.28C22.6764 41.992 22.4644 41.648 22.3124 41.248C22.1684 40.848 22.0964 40.396 22.0964 39.892C22.0964 39.412 22.1564 38.976 22.2764 38.584C22.4044 38.184 22.5884 37.844 22.8284 37.564C23.0684 37.276 23.3604 37.056 23.7044 36.904C24.0564 36.744 24.4564 36.664 24.9044 36.664C25.2644 36.664 25.5804 36.712 25.8524 36.808C26.1324 36.904 26.3404 36.996 26.4764 37.084V35.632H24.3524V34.804H26.4764V33.88ZM32.0068 36.46C32.7908 36.46 33.3708 36.632 33.7468 36.976C34.1228 37.32 34.3108 37.868 34.3108 38.62V43H33.5428L33.3388 42.088H33.2908C33.1068 42.32 32.9148 42.516 32.7148 42.676C32.5228 42.828 32.2988 42.94 32.0428 43.012C31.7948 43.084 31.4908 43.12 31.1308 43.12C30.7468 43.12 30.3988 43.052 30.0868 42.916C29.7828 42.78 29.5428 42.572 29.3668 42.292C29.1908 42.004 29.1028 41.644 29.1028 41.212C29.1028 40.572 29.3548 40.08 29.8588 39.736C30.3628 39.384 31.1388 39.192 32.1868 39.16L33.2788 39.124V38.74C33.2788 38.204 33.1628 37.832 32.9308 37.624C32.6988 37.416 32.3708 37.312 31.9468 37.312C31.6108 37.312 31.2908 37.364 30.9868 37.468C30.6828 37.564 30.3988 37.676 30.1348 37.804L29.8108 37.012C30.0908 36.86 30.4228 36.732 30.8068 36.628C31.1908 36.516 31.5908 36.46 32.0068 36.46ZM32.3188 39.892C31.5188 39.924 30.9628 40.052 30.6508 40.276C30.3468 40.5 30.1948 40.816 30.1948 41.224C30.1948 41.584 30.3028 41.848 30.5188 42.016C30.7428 42.184 31.0268 42.268 31.3708 42.268C31.9148 42.268 32.3668 42.12 32.7268 41.824C33.0868 41.52 33.2668 41.056 33.2668 40.432V39.856L32.3188 39.892ZM33.8428 34.12C33.8188 34.44 33.7268 34.72 33.5668 34.96C33.4148 35.2 33.2028 35.388 32.9308 35.524C32.6588 35.66 32.3308 35.728 31.9468 35.728C31.3548 35.728 30.9068 35.584 30.6028 35.296C30.3068 35 30.1428 34.608 30.1108 34.12H30.7588C30.7828 34.336 30.8428 34.5 30.9388 34.612C31.0428 34.716 31.1788 34.788 31.3468 34.828C31.5228 34.86 31.7308 34.876 31.9708 34.876C32.1788 34.876 32.3668 34.856 32.5348 34.816C32.7108 34.776 32.8548 34.704 32.9668 34.6C33.0868 34.488 33.1588 34.328 33.1828 34.12H33.8428ZM31.7068 45.112C31.5388 45.112 31.3908 45.056 31.2628 44.944C31.1428 44.832 31.0828 44.664 31.0828 44.44C31.0828 44.208 31.1428 44.036 31.2628 43.924C31.3908 43.82 31.5388 43.768 31.7068 43.768C31.8748 43.768 32.0188 43.82 32.1388 43.924C32.2668 44.036 32.3308 44.208 32.3308 44.44C32.3308 44.664 32.2668 44.832 32.1388 44.944C32.0188 45.056 31.8748 45.112 31.7068 45.112ZM37.2813 36.76H39.6453V37.696H37.2813V40.576C37.2813 40.888 37.3053 41.148 37.3533 41.356C37.4013 41.556 37.4733 41.716 37.5693 41.836C37.6653 41.948 37.7853 42.028 37.9293 42.076C38.0733 42.124 38.2413 42.148 38.4333 42.148C38.7693 42.148 39.0373 42.112 39.2373 42.04C39.4453 41.96 39.5893 41.904 39.6693 41.872L39.8853 42.796C39.7733 42.852 39.5773 42.92 39.2973 43C39.0173 43.088 38.6973 43.132 38.3373 43.132C37.9133 43.132 37.5613 43.08 37.2813 42.976C37.0093 42.864 36.7893 42.7 36.6213 42.484C36.4533 42.268 36.3333 42.004 36.2613 41.692C36.1973 41.372 36.1653 41.004 36.1653 40.588V35.02L37.2813 34.828V36.76Z" fill="#818181"/>
<path d="M122.744 43.168C121.392 43.168 120.36 42.792 119.648 42.04C118.944 41.288 118.592 40.22 118.592 38.836C118.592 38.148 118.7 37.536 118.916 37C119.132 36.456 119.428 36 119.804 35.632C120.18 35.256 120.628 34.972 121.148 34.78C121.668 34.588 122.232 34.492 122.84 34.492C123.192 34.492 123.512 34.52 123.8 34.576C124.088 34.624 124.34 34.684 124.556 34.756C124.772 34.82 124.952 34.888 125.096 34.96C125.24 35.032 125.344 35.088 125.408 35.128L124.868 36.64C124.612 36.504 124.312 36.388 123.968 36.292C123.632 36.196 123.248 36.148 122.816 36.148C122.528 36.148 122.244 36.196 121.964 36.292C121.692 36.388 121.448 36.544 121.232 36.76C121.024 36.968 120.856 37.24 120.728 37.576C120.6 37.912 120.536 38.32 120.536 38.8C120.536 39.184 120.576 39.544 120.656 39.88C120.744 40.208 120.88 40.492 121.064 40.732C121.256 40.972 121.504 41.164 121.808 41.308C122.112 41.444 122.48 41.512 122.912 41.512C123.184 41.512 123.428 41.496 123.644 41.464C123.86 41.432 124.052 41.396 124.22 41.356C124.388 41.308 124.536 41.256 124.664 41.2C124.792 41.144 124.908 41.092 125.012 41.044L125.528 42.544C125.264 42.704 124.892 42.848 124.412 42.976C123.932 43.104 123.376 43.168 122.744 43.168ZM126.613 43V33.976L128.401 33.688V36.712C128.521 36.672 128.673 36.636 128.857 36.604C129.049 36.564 129.233 36.544 129.409 36.544C129.921 36.544 130.345 36.616 130.681 36.76C131.025 36.896 131.297 37.092 131.497 37.348C131.705 37.604 131.849 37.908 131.929 38.26C132.017 38.612 132.061 39.004 132.061 39.436V43H130.273V39.652C130.273 39.076 130.197 38.668 130.045 38.428C129.901 38.188 129.629 38.068 129.229 38.068C129.069 38.068 128.917 38.084 128.773 38.116C128.637 38.14 128.513 38.168 128.401 38.2V43H126.613ZM139.068 42.784C138.764 42.872 138.372 42.952 137.892 43.024C137.412 43.104 136.908 43.144 136.38 43.144C135.844 43.144 135.396 43.072 135.036 42.928C134.684 42.784 134.404 42.584 134.196 42.328C133.988 42.064 133.84 41.752 133.752 41.392C133.664 41.032 133.62 40.636 133.62 40.204V36.688H135.408V39.988C135.408 40.564 135.484 40.98 135.636 41.236C135.788 41.492 136.072 41.62 136.488 41.62C136.616 41.62 136.752 41.616 136.896 41.608C137.04 41.592 137.168 41.576 137.28 41.56V36.688H139.068V42.784ZM144.454 33.928C144.582 34.104 144.718 34.292 144.862 34.492C145.006 34.684 145.15 34.876 145.294 35.068C145.446 35.252 145.586 35.42 145.714 35.572V35.728H144.766C144.566 35.592 144.362 35.444 144.154 35.284C143.946 35.116 143.738 34.94 143.53 34.756C143.322 34.94 143.114 35.116 142.906 35.284C142.698 35.444 142.494 35.592 142.294 35.728H141.346V35.572C141.482 35.42 141.622 35.252 141.766 35.068C141.91 34.876 142.054 34.684 142.198 34.492C142.35 34.292 142.486 34.104 142.606 33.928H144.454ZM145.678 32.548C146.046 32.548 146.338 32.62 146.554 32.764C146.778 32.9 146.89 33.124 146.89 33.436C146.89 33.66 146.826 33.84 146.698 33.976C146.57 34.112 146.39 34.204 146.158 34.252L146.122 34.612H145.378L145.318 33.928C145.598 33.912 145.786 33.868 145.882 33.796C145.978 33.724 146.026 33.648 146.026 33.568C146.026 33.48 145.99 33.408 145.918 33.352C145.846 33.296 145.726 33.268 145.558 33.268C145.478 33.268 145.398 33.276 145.318 33.292C145.238 33.3 145.178 33.312 145.138 33.328V32.584C145.178 32.568 145.246 32.56 145.342 32.56C145.438 32.552 145.55 32.548 145.678 32.548ZM143.53 36.316C144.41 36.316 145.082 36.508 145.546 36.892C146.018 37.268 146.254 37.848 146.254 38.632V43H145.006L144.658 42.112H144.61C144.426 42.344 144.234 42.536 144.034 42.688C143.842 42.84 143.618 42.948 143.362 43.012C143.114 43.084 142.806 43.12 142.438 43.12C142.054 43.12 141.706 43.048 141.394 42.904C141.09 42.752 140.85 42.524 140.674 42.22C140.498 41.908 140.41 41.516 140.41 41.044C140.41 40.348 140.654 39.836 141.142 39.508C141.63 39.172 142.362 38.988 143.338 38.956L144.478 38.92V38.632C144.478 38.288 144.386 38.036 144.202 37.876C144.026 37.716 143.778 37.636 143.458 37.636C143.138 37.636 142.826 37.684 142.522 37.78C142.218 37.868 141.914 37.98 141.61 38.116L141.022 36.904C141.374 36.72 141.762 36.576 142.186 36.472C142.618 36.368 143.066 36.316 143.53 36.316ZM143.782 39.988C143.206 40.004 142.806 40.108 142.582 40.3C142.358 40.492 142.246 40.744 142.246 41.056C142.246 41.328 142.326 41.524 142.486 41.644C142.646 41.756 142.854 41.812 143.11 41.812C143.494 41.812 143.818 41.7 144.082 41.476C144.346 41.244 144.478 40.92 144.478 40.504V39.964L143.782 39.988ZM148 36.904C148.304 36.816 148.696 36.736 149.176 36.664C149.656 36.584 150.16 36.544 150.688 36.544C151.224 36.544 151.668 36.616 152.02 36.76C152.38 36.896 152.664 37.092 152.872 37.348C153.08 37.604 153.228 37.908 153.316 38.26C153.404 38.612 153.448 39.004 153.448 39.436V43H151.66V39.652C151.66 39.076 151.584 38.668 151.432 38.428C151.28 38.188 150.996 38.068 150.58 38.068C150.452 38.068 150.316 38.076 150.172 38.092C150.028 38.1 149.9 38.112 149.788 38.128V43H148V36.904ZM161.993 39.796C161.993 38.644 161.569 38.068 160.721 38.068C160.537 38.068 160.353 38.092 160.169 38.14C159.993 38.188 159.849 38.248 159.737 38.32V41.572C159.825 41.588 159.937 41.604 160.073 41.62C160.209 41.628 160.357 41.632 160.517 41.632C161.005 41.632 161.373 41.464 161.621 41.128C161.869 40.792 161.993 40.348 161.993 39.796ZM163.817 39.844C163.817 40.348 163.741 40.804 163.589 41.212C163.445 41.62 163.233 41.968 162.953 42.256C162.673 42.544 162.329 42.768 161.921 42.928C161.513 43.08 161.049 43.156 160.529 43.156C160.313 43.156 160.085 43.144 159.845 43.12C159.613 43.104 159.381 43.08 159.149 43.048C158.925 43.016 158.709 42.98 158.501 42.94C158.293 42.892 158.109 42.844 157.949 42.796V33.976L159.737 33.688V36.832C159.937 36.744 160.145 36.676 160.361 36.628C160.577 36.58 160.809 36.556 161.057 36.556C161.505 36.556 161.901 36.636 162.245 36.796C162.589 36.948 162.877 37.168 163.109 37.456C163.341 37.744 163.517 38.092 163.637 38.5C163.757 38.9 163.817 39.348 163.817 39.844ZM167.076 36.448V43H165.288V36.448H167.076ZM166.188 33.88C166.452 33.88 166.68 33.944 166.872 34.072C167.064 34.192 167.16 34.42 167.16 34.756C167.16 35.084 167.064 35.312 166.872 35.44C166.68 35.568 166.452 35.632 166.188 35.632C165.916 35.632 165.684 35.568 165.492 35.44C165.308 35.312 165.216 35.084 165.216 34.756C165.216 34.42 165.308 34.192 165.492 34.072C165.684 33.944 165.916 33.88 166.188 33.88ZM166.2 45.52C165.928 45.52 165.696 45.456 165.504 45.328C165.32 45.2 165.228 44.972 165.228 44.644C165.228 44.308 165.32 44.076 165.504 43.948C165.696 43.828 165.928 43.768 166.2 43.768C166.464 43.768 166.692 43.828 166.884 43.948C167.076 44.076 167.172 44.308 167.172 44.644C167.172 44.972 167.076 45.2 166.884 45.328C166.692 45.456 166.464 45.52 166.2 45.52Z" fill="black"/>
<path d="M229.176 34.684H230.34V43H229.176V39.16H225.108V43H223.944V34.684H225.108V38.152H229.176V34.684ZM237.841 39.88C237.841 40.376 237.769 40.824 237.625 41.224C237.481 41.624 237.277 41.968 237.013 42.256C236.757 42.544 236.449 42.768 236.089 42.928C235.729 43.08 235.337 43.156 234.913 43.156C234.489 43.156 234.097 43.08 233.737 42.928C233.377 42.768 233.065 42.544 232.801 42.256C232.545 41.968 232.345 41.624 232.201 41.224C232.057 40.824 231.985 40.376 231.985 39.88C231.985 39.392 232.057 38.948 232.201 38.548C232.345 38.14 232.545 37.792 232.801 37.504C233.065 37.216 233.377 36.996 233.737 36.844C234.097 36.684 234.489 36.604 234.913 36.604C235.337 36.604 235.729 36.684 236.089 36.844C236.449 36.996 236.757 37.216 237.013 37.504C237.277 37.792 237.481 38.14 237.625 38.548C237.769 38.948 237.841 39.392 237.841 39.88ZM236.677 39.88C236.677 39.176 236.517 38.62 236.197 38.212C235.885 37.796 235.457 37.588 234.913 37.588C234.369 37.588 233.937 37.796 233.617 38.212C233.305 38.62 233.149 39.176 233.149 39.88C233.149 40.584 233.305 41.144 233.617 41.56C233.937 41.968 234.369 42.172 234.913 42.172C235.457 42.172 235.885 41.968 236.197 41.56C236.517 41.144 236.677 40.584 236.677 39.88ZM241.523 42.196C241.787 42.196 242.019 42.192 242.219 42.184C242.427 42.168 242.599 42.144 242.735 42.112V40.252C242.655 40.212 242.523 40.18 242.339 40.156C242.163 40.124 241.947 40.108 241.691 40.108C241.523 40.108 241.343 40.12 241.151 40.144C240.967 40.168 240.795 40.22 240.635 40.3C240.483 40.372 240.355 40.476 240.251 40.612C240.147 40.74 240.095 40.912 240.095 41.128C240.095 41.528 240.223 41.808 240.479 41.968C240.735 42.12 241.083 42.196 241.523 42.196ZM241.427 36.604C241.875 36.604 242.251 36.664 242.555 36.784C242.867 36.896 243.115 37.06 243.299 37.276C243.491 37.484 243.627 37.736 243.707 38.032C243.787 38.32 243.827 38.64 243.827 38.992V42.892C243.731 42.908 243.595 42.932 243.419 42.964C243.251 42.988 243.059 43.012 242.843 43.036C242.627 43.06 242.391 43.08 242.135 43.096C241.887 43.12 241.639 43.132 241.391 43.132C241.039 43.132 240.715 43.096 240.419 43.024C240.123 42.952 239.867 42.84 239.651 42.688C239.435 42.528 239.267 42.32 239.147 42.064C239.027 41.808 238.967 41.5 238.967 41.14C238.967 40.796 239.035 40.5 239.171 40.252C239.315 40.004 239.507 39.804 239.747 39.652C239.987 39.5 240.267 39.388 240.587 39.316C240.907 39.244 241.243 39.208 241.595 39.208C241.707 39.208 241.823 39.216 241.943 39.232C242.063 39.24 242.175 39.256 242.279 39.28C242.391 39.296 242.487 39.312 242.567 39.328C242.647 39.344 242.703 39.356 242.735 39.364V39.052C242.735 38.868 242.715 38.688 242.675 38.512C242.635 38.328 242.563 38.168 242.459 38.032C242.355 37.888 242.211 37.776 242.027 37.696C241.851 37.608 241.619 37.564 241.331 37.564C240.963 37.564 240.639 37.592 240.359 37.648C240.087 37.696 239.883 37.748 239.747 37.804L239.615 36.88C239.759 36.816 239.999 36.756 240.335 36.7C240.671 36.636 241.035 36.604 241.427 36.604ZM240.887 33.688L242.423 35.536L241.859 36.04L240.167 34.396L240.887 33.688ZM245.681 36.94C245.937 36.876 246.277 36.808 246.701 36.736C247.125 36.664 247.613 36.628 248.165 36.628C248.661 36.628 249.073 36.7 249.401 36.844C249.729 36.98 249.989 37.176 250.181 37.432C250.381 37.68 250.521 37.98 250.601 38.332C250.681 38.684 250.721 39.072 250.721 39.496V43H249.605V39.736C249.605 39.352 249.577 39.024 249.521 38.752C249.473 38.48 249.389 38.26 249.269 38.092C249.149 37.924 248.989 37.804 248.789 37.732C248.589 37.652 248.341 37.612 248.045 37.612C247.925 37.612 247.801 37.616 247.673 37.624C247.545 37.632 247.421 37.644 247.301 37.66C247.189 37.668 247.085 37.68 246.989 37.696C246.901 37.712 246.837 37.724 246.797 37.732V43H245.681V36.94ZM256.393 36.76H258.757V37.696H256.393V40.576C256.393 40.888 256.417 41.148 256.465 41.356C256.513 41.556 256.585 41.716 256.681 41.836C256.777 41.948 256.897 42.028 257.041 42.076C257.185 42.124 257.353 42.148 257.545 42.148C257.881 42.148 258.149 42.112 258.349 42.04C258.557 41.96 258.701 41.904 258.781 41.872L258.997 42.796C258.885 42.852 258.689 42.92 258.409 43C258.129 43.088 257.809 43.132 257.449 43.132C257.025 43.132 256.673 43.08 256.393 42.976C256.121 42.864 255.901 42.7 255.733 42.484C255.565 42.268 255.445 42.004 255.373 41.692C255.309 41.372 255.277 41.004 255.277 40.588V35.02L256.393 34.828V36.76ZM260.177 43V33.88L261.293 33.688V36.88C261.501 36.8 261.721 36.74 261.953 36.7C262.193 36.652 262.429 36.628 262.661 36.628C263.157 36.628 263.569 36.7 263.897 36.844C264.225 36.98 264.485 37.176 264.677 37.432C264.877 37.68 265.017 37.98 265.097 38.332C265.177 38.684 265.217 39.072 265.217 39.496V43H264.101V39.736C264.101 39.352 264.073 39.024 264.017 38.752C263.969 38.48 263.885 38.26 263.765 38.092C263.645 37.924 263.485 37.804 263.285 37.732C263.085 37.652 262.837 37.612 262.541 37.612C262.421 37.612 262.297 37.62 262.169 37.636C262.041 37.652 261.917 37.672 261.797 37.696C261.685 37.712 261.581 37.732 261.485 37.756C261.397 37.78 261.333 37.8 261.293 37.816V43H260.177ZM269.144 42.196C269.408 42.196 269.64 42.192 269.84 42.184C270.048 42.168 270.22 42.144 270.356 42.112V40.252C270.276 40.212 270.144 40.18 269.96 40.156C269.784 40.124 269.568 40.108 269.312 40.108C269.144 40.108 268.964 40.12 268.772 40.144C268.588 40.168 268.416 40.22 268.256 40.3C268.104 40.372 267.976 40.476 267.872 40.612C267.768 40.74 267.716 40.912 267.716 41.128C267.716 41.528 267.844 41.808 268.1 41.968C268.356 42.12 268.704 42.196 269.144 42.196ZM269.048 36.604C269.496 36.604 269.872 36.664 270.176 36.784C270.488 36.896 270.736 37.06 270.92 37.276C271.112 37.484 271.248 37.736 271.328 38.032C271.408 38.32 271.448 38.64 271.448 38.992V42.892C271.352 42.908 271.216 42.932 271.04 42.964C270.872 42.988 270.68 43.012 270.464 43.036C270.248 43.06 270.012 43.08 269.756 43.096C269.508 43.12 269.26 43.132 269.012 43.132C268.66 43.132 268.336 43.096 268.04 43.024C267.744 42.952 267.488 42.84 267.272 42.688C267.056 42.528 266.888 42.32 266.768 42.064C266.648 41.808 266.588 41.5 266.588 41.14C266.588 40.796 266.656 40.5 266.792 40.252C266.936 40.004 267.128 39.804 267.368 39.652C267.608 39.5 267.888 39.388 268.208 39.316C268.528 39.244 268.864 39.208 269.216 39.208C269.328 39.208 269.444 39.216 269.564 39.232C269.684 39.24 269.796 39.256 269.9 39.28C270.012 39.296 270.108 39.312 270.188 39.328C270.268 39.344 270.324 39.356 270.356 39.364V39.052C270.356 38.868 270.336 38.688 270.296 38.512C270.256 38.328 270.184 38.168 270.08 38.032C269.976 37.888 269.832 37.776 269.648 37.696C269.472 37.608 269.24 37.564 268.952 37.564C268.584 37.564 268.26 37.592 267.98 37.648C267.708 37.696 267.504 37.748 267.368 37.804L267.236 36.88C267.38 36.816 267.62 36.756 267.956 36.7C268.292 36.636 268.656 36.604 269.048 36.604ZM268.508 33.688L270.044 35.536L269.48 36.04L267.788 34.396L268.508 33.688ZM273.302 36.94C273.558 36.876 273.898 36.808 274.322 36.736C274.746 36.664 275.234 36.628 275.786 36.628C276.282 36.628 276.694 36.7 277.022 36.844C277.35 36.98 277.61 37.176 277.802 37.432C278.002 37.68 278.142 37.98 278.222 38.332C278.302 38.684 278.342 39.072 278.342 39.496V43H277.226V39.736C277.226 39.352 277.198 39.024 277.142 38.752C277.094 38.48 277.01 38.26 276.89 38.092C276.77 37.924 276.61 37.804 276.41 37.732C276.21 37.652 275.962 37.612 275.666 37.612C275.546 37.612 275.422 37.616 275.294 37.624C275.166 37.632 275.042 37.644 274.922 37.66C274.81 37.668 274.706 37.68 274.61 37.696C274.522 37.712 274.458 37.724 274.418 37.732V43H273.302V36.94ZM280.192 43V33.88L281.308 33.688V36.88C281.516 36.8 281.736 36.74 281.968 36.7C282.208 36.652 282.444 36.628 282.676 36.628C283.172 36.628 283.584 36.7 283.912 36.844C284.24 36.98 284.5 37.176 284.692 37.432C284.892 37.68 285.032 37.98 285.112 38.332C285.192 38.684 285.232 39.072 285.232 39.496V43H284.116V39.736C284.116 39.352 284.088 39.024 284.032 38.752C283.984 38.48 283.9 38.26 283.78 38.092C283.66 37.924 283.5 37.804 283.3 37.732C283.1 37.652 282.852 37.612 282.556 37.612C282.436 37.612 282.312 37.62 282.184 37.636C282.056 37.652 281.932 37.672 281.812 37.696C281.7 37.712 281.596 37.732 281.5 37.756C281.412 37.78 281.348 37.8 281.308 37.816V43H280.192Z" fill="#979797"/>
</svg>
