<svg width="40" height="39" viewBox="0 0 40 39" fill="none" xmlns="http://www.w3.org/2000/svg">
<path d="M34.5143 39H34.2593C4.78429 37.305 0.599287 12.435 0.0142872 4.845C-0.0328499 4.25487 0.0369202 3.66124 0.2196 3.09812C0.402279 2.535 0.694277 2.01346 1.07886 1.56338C1.46345 1.1133 1.93307 0.743532 2.4608 0.475259C2.98854 0.206987 3.56403 0.0454827 4.15429 1.40639e-06H12.4193C13.0201 -0.000580239 13.6073 0.179266 14.1047 0.516244C14.6022 0.853222 14.987 1.33181 15.2093 1.89L17.4893 7.5C17.7088 8.04532 17.7633 8.64312 17.646 9.21914C17.5286 9.79516 17.2446 10.324 16.8293 10.74L13.6343 13.965C14.1334 16.8011 15.4916 19.4155 17.5251 21.4544C19.5587 23.4934 22.1695 24.8585 25.0043 25.365L28.2593 22.14C28.6815 21.7292 29.2154 21.4519 29.7942 21.3425C30.3731 21.2331 30.9713 21.2966 31.5143 21.525L37.1693 23.79C37.7191 24.0193 38.1881 24.4071 38.5167 24.904C38.8453 25.4009 39.0185 25.9843 39.0143 26.58V34.5C39.0143 35.6935 38.5402 36.8381 37.6963 37.682C36.8524 38.5259 35.7078 39 34.5143 39ZM4.51429 3C4.11646 3 3.73493 3.15804 3.45363 3.43934C3.17232 3.72065 3.01429 4.10218 3.01429 4.5V4.62C3.70429 13.5 8.12929 34.5 34.4243 36C34.6213 36.0122 34.8189 35.9853 35.0055 35.921C35.1922 35.8567 35.3643 35.7561 35.5121 35.6251C35.6598 35.4941 35.7802 35.3353 35.8664 35.1576C35.9525 34.98 36.0028 34.7871 36.0143 34.59V26.58L30.3593 24.315L26.0543 28.59L25.3343 28.5C12.2843 26.865 10.5143 13.815 10.5143 13.68L10.4243 12.96L14.6843 8.655L12.4343 3H4.51429Z" fill="black"/>
</svg>
