<svg width="19" height="18" viewBox="0 0 19 18" fill="none" xmlns="http://www.w3.org/2000/svg">
<path d="M1.97947 0C0.886639 0 0 0.863839 0 1.92857V5.78571C0 6.85045 0.886639 7.71429 1.97947 7.71429H5.93842C7.03125 7.71429 7.91789 6.85045 7.91789 5.78571V1.92857C7.91789 0.863839 7.03125 0 5.93842 0H1.97947ZM5.27859 2.57143V5.14286H2.6393V2.57143H5.27859ZM1.97947 10.2857C0.886639 10.2857 0 11.1496 0 12.2143V16.0714C0 17.1362 0.886639 18 1.97947 18H5.93842C7.03125 18 7.91789 17.1362 7.91789 16.0714V12.2143C7.91789 11.1496 7.03125 10.2857 5.93842 10.2857H1.97947ZM5.27859 12.8571V15.4286H2.6393V12.8571H5.27859ZM10.5572 1.92857V5.78571C10.5572 6.85045 11.4438 7.71429 12.5367 7.71429H16.4956C17.5884 7.71429 18.4751 6.85045 18.4751 5.78571V1.92857C18.4751 0.863839 17.5884 0 16.4956 0H12.5367C11.4438 0 10.5572 0.863839 10.5572 1.92857ZM13.1965 2.57143H15.8358V5.14286H13.1965V2.57143ZM14.5161 16.7143V18H15.8358V16.7143H14.5161ZM18.4751 16.7143H17.1554V18H18.4751V16.7143ZM17.1554 10.2857V11.5714H14.5161V10.2857H10.5572V14.1429V18H13.1965V14.1429H14.5161V15.4286H18.4751V12.8571V11.5714V10.2857H17.1554Z" fill="black"/>
</svg>
