<svg width="15" height="14" viewBox="0 0 15 14" fill="none" xmlns="http://www.w3.org/2000/svg">
<path fill-rule="evenodd" clip-rule="evenodd" d="M12.1512 5.8839C12.1512 8.48653 9.77753 10.7678 6.62685 10.7678C3.47616 10.7678 1.10254 8.48653 1.10254 5.8839C1.10254 3.28128 3.47616 1 6.62685 1C9.77753 1 12.1512 3.28128 12.1512 5.8839ZM10.0999 10.8658C9.09419 11.4372 7.90333 11.7678 6.62685 11.7678C3.02357 11.7678 0.102539 9.1335 0.102539 5.8839C0.102539 2.63431 3.02357 0 6.62685 0C10.2301 0 13.1512 2.63431 13.1512 5.8839C13.1512 7.63672 12.3013 9.21052 10.9529 10.2884L14.1388 13.1617L13.4691 13.9043L10.0999 10.8658Z" fill="#000000"/>
</svg>
