<svg width="18" height="18" viewBox="0 0 18 18" fill="none" xmlns="http://www.w3.org/2000/svg">
<path d="M8.61865 5.90625C8.00677 5.90625 7.40862 6.0877 6.89986 6.42764C6.39109 6.76759 5.99456 7.25076 5.7604 7.81607C5.52624 8.38138 5.46498 9.00343 5.58435 9.60356C5.70372 10.2037 5.99837 10.7549 6.43104 11.1876C6.86371 11.6203 7.41496 11.9149 8.01509 12.0343C8.61522 12.1537 9.23727 12.0924 9.80258 11.8583C10.3679 11.6241 10.8511 11.2276 11.191 10.7188C11.531 10.21 11.7124 9.61189 11.7124 9C11.7115 8.17977 11.3852 7.39341 10.8052 6.81342C10.2252 6.23343 9.43888 5.90718 8.61865 5.90625ZM8.61865 10.9688C8.22927 10.9688 7.84863 10.8533 7.52487 10.637C7.20112 10.4206 6.94878 10.1131 6.79977 9.75341C6.65076 9.39367 6.61177 8.99782 6.68773 8.61592C6.7637 8.23402 6.9512 7.88322 7.22654 7.60788C7.50187 7.33255 7.85267 7.14504 8.23457 7.06908C8.61647 6.99311 9.01232 7.0321 9.37206 7.18111C9.7318 7.33012 10.0393 7.58246 10.2556 7.90622C10.4719 8.22998 10.5874 8.61062 10.5874 9C10.5868 9.52197 10.3792 10.0224 10.0101 10.3915C9.64104 10.7606 9.14062 10.9682 8.61865 10.9688Z" fill="black"/>
<path d="M16.3372 11.3315L15.2203 10.4121C15.4183 9.48111 15.4183 8.5189 15.2203 7.58792L16.3372 6.66848C16.466 6.56293 16.553 6.41497 16.5827 6.2511C16.6124 6.08723 16.5827 5.91815 16.4991 5.77414L15.3526 3.78841C15.2697 3.64392 15.1381 3.53368 14.9813 3.47744C14.8245 3.4212 14.6528 3.42264 14.497 3.48149L13.1413 3.98939C12.4351 3.35133 11.602 2.8698 10.6966 2.57639L10.4587 1.15007C10.4318 0.98569 10.3472 0.836275 10.2201 0.728605C10.093 0.620935 9.93171 0.562049 9.76514 0.562503H7.47218C7.30561 0.562055 7.14434 0.620938 7.01725 0.7286C6.89015 0.836262 6.80556 0.985664 6.77861 1.15003L6.54089 2.57639C5.63547 2.8698 4.80233 3.35133 4.09612 3.98939L2.74032 3.48142C2.58451 3.4226 2.41284 3.42119 2.25608 3.47744C2.09932 3.53368 1.96771 3.64391 1.88483 3.78837L0.738348 5.77424C0.654733 5.91826 0.625122 6.08735 0.654819 6.25122C0.684516 6.41508 0.77158 6.56302 0.900419 6.66855L2.01723 7.58792C1.81923 8.5189 1.81923 9.48111 2.01723 10.4121L0.900313 11.3315C0.771495 11.4371 0.684454 11.585 0.654778 11.7489C0.625101 11.9128 0.654726 12.0819 0.738348 12.2259L1.88486 14.2116C1.96775 14.3561 2.09938 14.4663 2.25617 14.5226C2.41295 14.5788 2.58464 14.5774 2.74046 14.5185L4.09616 14.0106C4.80237 14.6487 5.63551 15.1302 6.54092 15.4236L6.77865 16.8499C6.80558 17.0143 6.89017 17.1637 7.01726 17.2714C7.14434 17.379 7.30561 17.4379 7.47218 17.4375H9.76514C9.9317 17.438 10.093 17.3791 10.2201 17.2714C10.3472 17.1637 10.4318 17.0143 10.4587 16.85L10.6965 15.4236C11.6019 15.1302 12.435 14.6487 13.1412 14.0106L14.497 14.5186C14.6528 14.5774 14.8245 14.5788 14.9812 14.5226C15.138 14.4663 15.2696 14.3561 15.3525 14.2116L16.4989 12.2258C16.5825 12.0818 16.6122 11.9127 16.5826 11.7489C16.5529 11.585 16.4659 11.4371 16.3372 11.3315ZM14.557 13.3397L12.8657 12.706L12.6096 12.9638C11.9049 13.6741 11.0235 14.1835 10.0563 14.4394L9.70477 14.5321L9.40788 16.3125H7.82972L7.53293 14.5321L7.18136 14.4394C6.21418 14.1835 5.3328 13.6741 4.62814 12.9638L4.37203 12.706L2.68041 13.3397L1.89147 11.9729L3.28468 10.8259L3.18976 10.4753C2.92872 9.5091 2.92872 8.4909 3.18976 7.52467L3.28468 7.17409L1.89147 6.02715L2.68059 4.66035L4.37192 5.29401L4.62804 5.03617C5.33269 4.32593 6.21407 3.81654 7.18126 3.56056L7.53282 3.46789L7.82957 1.6875H9.40788L9.70467 3.46789L10.0562 3.56056C11.0234 3.81654 11.9048 4.32593 12.6095 5.03617L12.8656 5.29401L14.5569 4.66035L15.3461 6.02712L13.9528 7.17409L14.0478 7.52467C14.3088 8.4909 14.3088 9.5091 14.0478 10.4753L13.9528 10.8259L15.3461 11.9728L14.557 13.3397Z" fill="black"/>
</svg>
