<svg width="21" height="16" viewBox="0 0 21 16" fill="none" xmlns="http://www.w3.org/2000/svg">
<path d="M15.7292 6.58041H10.9792V8.22117C10.9792 9.38436 9.96984 10.3307 8.72921 10.3307C7.48859 10.3307 6.47922 9.38436 6.47922 8.22117V4.65837L4.4511 5.80104C3.84797 6.13799 3.47922 6.75034 3.47922 7.40665V8.79251L0.979227 10.1461C0.501103 10.404 0.335479 10.9782 0.613603 11.4265L3.1136 15.4874C3.3886 15.9357 4.0011 16.088 4.47922 15.8302L7.71047 14.081H11.9792C13.0823 14.081 13.9792 13.2402 13.9792 12.2059H14.4792C15.0323 12.2059 15.4792 11.7869 15.4792 11.2683V9.39315H15.7292C16.1448 9.39315 16.4792 9.07964 16.4792 8.68996V7.28359C16.4792 6.89391 16.1448 6.58041 15.7292 6.58041ZM20.3448 5.48461L17.8448 1.42372C17.5698 0.975442 16.9573 0.823086 16.4792 1.08092L13.248 2.83009H10.0542C9.67921 2.83009 9.31359 2.92971 8.99484 3.11429L7.94797 3.72665C7.65422 3.89659 7.47922 4.19837 7.47922 4.52066V8.22117C7.47922 8.86869 8.03859 9.39315 8.72921 9.39315C9.41984 9.39315 9.97921 8.86869 9.97921 8.22117V5.64283H15.7292C16.6948 5.64283 17.4792 6.37824 17.4792 7.28359V8.11862L19.9792 6.76499C20.4573 6.50423 20.6198 5.93289 20.3448 5.48461V5.48461Z" fill="black"/>
</svg>
