<svg width="32" height="32" viewBox="0 0 32 32" fill="none" xmlns="http://www.w3.org/2000/svg">
<path d="M31.4055 29.7101V28.0964C31.4055 27.7567 31.2553 27.43 30.9939 27.2144C29.537 26.0188 27.969 25.2218 27.6489 25.065C27.6097 25.0454 27.5901 25.0127 27.5901 24.9735V22.7065C27.8776 22.517 28.0605 22.1903 28.0605 21.8245V19.4725C28.0605 18.303 27.1132 17.3557 25.9437 17.3557H25.6889H25.4341C24.2647 17.3557 23.3173 18.303 23.3173 19.4725V21.8245C23.3173 22.1903 23.5068 22.517 23.7877 22.7065V24.9735C23.7877 25.0127 23.7681 25.0519 23.7289 25.065C23.4088 25.2218 21.8408 26.0123 20.3839 27.2144C20.1226 27.43 19.9723 27.7567 19.9723 28.0964V29.7101" fill="#94A4A4"/>
<path d="M6.32427 15.3108C5.9976 15.3108 5.72974 15.5787 5.72974 15.9053V18.2573C5.72974 21.0601 8.00985 23.3402 10.8126 23.3402H18.2867L17.3067 24.3202C17.078 24.5488 17.078 24.9278 17.3067 25.1564C17.4243 25.274 17.5746 25.3328 17.7248 25.3328C17.8751 25.3328 18.0254 25.274 18.143 25.1564L20.1291 23.1703C20.2402 23.0593 20.3055 22.909 20.3055 22.7522C20.3055 22.5954 20.2402 22.4451 20.1291 22.3341L18.143 20.3479C17.9143 20.1193 17.5354 20.1193 17.3067 20.3479C17.078 20.5766 17.078 20.9555 17.3067 21.1842L18.2867 22.1642H10.8126C8.66318 22.1642 6.91226 20.4133 6.91226 18.2638V15.9119C6.91226 15.5721 6.65093 15.3108 6.32427 15.3108Z" fill="#2C2F33"/>
<path d="M13.8309 9.60725C13.9485 9.72485 14.0988 9.78365 14.249 9.78365C14.3993 9.78365 14.5496 9.72485 14.6672 9.60725C14.8958 9.37859 14.8958 8.99966 14.6672 8.77099L13.6872 7.791H21.1939C23.3434 7.791 25.0943 9.54192 25.0943 11.6914V14.0433C25.0943 14.37 25.3621 14.6379 25.6888 14.6379C26.0155 14.6379 26.2833 14.37 26.2833 14.0433V11.6914C26.2833 8.88859 24.0032 6.60848 21.2004 6.60848H13.6937L14.6737 5.62849C14.9024 5.39982 14.9024 5.02089 14.6737 4.79223C14.445 4.56356 14.0661 4.56356 13.8374 4.79223L11.8513 6.77834C11.7403 6.88941 11.6749 7.03967 11.6749 7.19647C11.6749 7.35327 11.7403 7.50354 11.8513 7.6146L13.8309 9.60725Z" fill="#2C2F33"/>
<path d="M0.607595 15.2389C0.934259 15.2389 1.20212 14.9711 1.20212 14.6444V13.0307C1.20212 12.8673 1.27399 12.7105 1.39812 12.606C2.80931 11.4496 4.3381 10.6787 4.62556 10.535C4.86076 10.4174 5.01756 10.1756 5.01756 9.90777V7.64072C5.01756 7.44472 4.91956 7.25526 4.75623 7.15072C4.62556 7.06579 4.54716 6.91552 4.54716 6.75873V4.40675C4.54716 3.56395 5.23316 2.87796 6.06942 2.87796H6.57248C7.41527 2.87796 8.09473 3.56395 8.09473 4.40675V6.75873C8.09473 6.91552 8.01633 7.05926 7.88567 7.15072C7.72234 7.26179 7.62434 7.44472 7.62434 7.64072V9.90777C7.62434 10.1691 7.7746 10.4174 8.01633 10.535C8.31033 10.6787 9.83912 11.4496 11.2438 12.606C11.3679 12.7105 11.4398 12.8608 11.4398 13.0307V14.6444C11.4398 14.9711 11.7076 15.2389 12.0343 15.2389C12.361 15.2389 12.6288 14.9711 12.6288 14.6444V13.0307C12.6288 12.508 12.4002 12.0245 11.9951 11.6914C10.7472 10.6656 9.40792 9.92083 8.80686 9.60724V7.91512C9.10739 7.60805 9.27726 7.19646 9.27726 6.75873V4.40675C9.27726 2.91062 8.06207 1.69543 6.56595 1.69543H6.06288C4.56676 1.69543 3.35157 2.91062 3.35157 4.40675V6.75873C3.35157 7.19646 3.52144 7.60805 3.82197 7.91512V9.60724C3.22091 9.92083 1.88158 10.6656 0.633728 11.6914C0.235198 12.018 0 12.508 0 13.0307V14.6444C0.0130666 14.9776 0.280931 15.2389 0.607595 15.2389Z" fill="#2C2F33"/>
<path d="M20.0114 26.7571C19.6129 27.0838 19.3777 27.5738 19.3777 28.0965V29.7102C19.3777 30.0369 19.6456 30.3047 19.9722 30.3047C20.2989 30.3047 20.5667 30.0369 20.5667 29.7102V28.0965C20.5667 27.9331 20.6386 27.7763 20.7627 27.6718C22.1739 26.5154 23.7027 25.7445 23.9902 25.6008C24.2254 25.4832 24.3822 25.2414 24.3822 24.9736V22.7065C24.3822 22.5105 24.2842 22.3211 24.1208 22.2165C23.9902 22.1316 23.9118 21.9813 23.9118 21.8245V19.4725C23.9118 18.6297 24.5978 17.9438 25.434 17.9438H25.9371C26.7799 17.9438 27.4659 18.6297 27.4659 19.4725V21.8245C27.4659 21.9813 27.3875 22.1251 27.2568 22.2165C27.0935 22.3276 26.9955 22.5105 26.9955 22.7065V24.9736C26.9955 25.2349 27.1458 25.4832 27.3875 25.6008C27.6815 25.7445 29.2103 26.5154 30.6149 27.6718C30.7391 27.7763 30.8109 27.9266 30.8109 28.0965V29.7102C30.8109 30.0369 31.0788 30.3047 31.4055 30.3047C31.7321 30.3047 32 30.0369 32 29.7102V28.0965C32 27.5738 31.7713 27.0903 31.3663 26.7571C30.1184 25.7314 28.7791 24.9866 28.178 24.673V22.9809C28.4785 22.6738 28.6484 22.2623 28.6484 21.8245V19.4725C28.6484 17.9764 27.4332 16.7612 25.9371 16.7612H25.434C23.9379 16.7612 22.7227 17.9764 22.7227 19.4725V21.8245C22.7227 22.2623 22.8926 22.6738 23.1931 22.9809V24.673C22.5986 24.9866 21.2658 25.7314 20.0114 26.7571Z" fill="#2C2F33"/>
</svg>
