<svg width="18" height="20" viewBox="0 0 18 20" fill="none" xmlns="http://www.w3.org/2000/svg">
<g clip-path="url(#clip0_461_169)">
<path d="M5.78571 5.625C5.78571 3.89844 7.22411 2.5 9 2.5C10.2817 2.5 11.3866 3.22656 11.9049 4.28516C12.2103 4.91016 12.9777 5.17578 13.6165 4.87891C14.2554 4.58203 14.5326 3.83594 14.2272 3.21484C13.2991 1.31641 11.3103 0 9 0C5.8058 0 3.21429 2.51953 3.21429 5.625V7.5H2.57143C1.15313 7.5 0 8.62109 0 10V17.5C0 18.8789 1.15313 20 2.57143 20H15.4286C16.8469 20 18 18.8789 18 17.5V10C18 8.62109 16.8469 7.5 15.4286 7.5H5.78571V5.625Z" fill="#146EBE"/>
</g>
<defs>
<clipPath id="clip0_461_169">
<rect width="18" height="20" fill="white"/>
</clipPath>
</defs>
</svg>
