<svg width="17" height="18" viewBox="0 0 17 18" fill="none" xmlns="http://www.w3.org/2000/svg">
<path d="M3.17098 3.65628H13.796C13.9201 3.65622 14.0441 3.66455 14.1672 3.68124C14.1255 3.37108 14.0248 3.07308 13.8714 2.80521C13.718 2.53734 13.5149 2.30514 13.2744 2.12262C13.0339 1.9401 12.761 1.81104 12.4721 1.74321C12.1833 1.67538 11.8844 1.67019 11.5936 1.72796L2.85555 3.30753H2.84559C2.29709 3.41859 1.80934 3.74717 1.48193 4.22616C1.9752 3.85467 2.56566 3.65545 3.17098 3.65628Z" fill="black"/>
<path d="M13.7959 4.5H3.1709C2.6075 4.50065 2.06736 4.73791 1.66898 5.15973C1.27059 5.58154 1.04651 6.15346 1.0459 6.75V13.5C1.04651 14.0965 1.27059 14.6685 1.66898 15.0903C2.06736 15.5121 2.6075 15.7493 3.1709 15.75H13.7959C14.3593 15.7493 14.8994 15.5121 15.2978 15.0903C15.6962 14.6685 15.9203 14.0965 15.9209 13.5V6.75C15.9203 6.15346 15.6962 5.58154 15.2978 5.15973C14.8994 4.73791 14.3593 4.50065 13.7959 4.5ZM12.2188 11.25C12.0086 11.25 11.8032 11.184 11.6285 11.0604C11.4537 10.9368 11.3175 10.7611 11.2371 10.5555C11.1567 10.35 11.1357 10.1238 11.1767 9.90552C11.2177 9.68729 11.3189 9.48684 11.4674 9.3295C11.616 9.17217 11.8054 9.06502 12.0115 9.02162C12.2176 8.97821 12.4312 9.00049 12.6254 9.08564C12.8195 9.17078 12.9854 9.31498 13.1022 9.49998C13.2189 9.68499 13.2812 9.9025 13.2812 10.125C13.2812 10.4234 13.1693 10.7095 12.9701 10.9205C12.7708 11.1315 12.5005 11.25 12.2188 11.25Z" fill="black"/>
<path d="M1.0625 9.12305V5.625C1.0625 4.86316 1.46094 3.58594 2.84385 3.30926C4.01758 3.07617 5.17969 3.07617 5.17969 3.07617C5.17969 3.07617 5.94336 3.63867 5.3125 3.63867C4.68164 3.63867 4.69824 4.5 5.3125 4.5C5.92676 4.5 5.3125 5.32617 5.3125 5.32617L2.83887 8.29688L1.0625 9.12305Z" fill="black"/>
</svg>
