<?xml version="1.0" encoding="UTF-8"?>
<svg id="Layer_1" data-name="Layer 1" xmlns="http://www.w3.org/2000/svg" xmlns:xlink="http://www.w3.org/1999/xlink" viewBox="0 0 939.52 939.03">
  <defs>
    <style>
      .cls-1 {
        fill: none;
      }

      .cls-2 {
        fill: url(#linear-gradient);
      }

      .cls-3 {
        fill: url(#linear-gradient-3);
      }

      .cls-4 {
        fill: url(#linear-gradient-4);
      }

      .cls-5 {
        fill: url(#linear-gradient-2);
      }

      .cls-6 {
        fill: url(#linear-gradient-5);
      }
    </style>
    <linearGradient id="linear-gradient" x1="469.78" y1="219.45" x2="469.78" y2="0" gradientTransform="translate(-1.8 1.81) rotate(-.22)" gradientUnits="userSpaceOnUse">
      <stop offset="0" stop-color="#677a9b"/>
      <stop offset="1" stop-color="#5b2b5f"/>
    </linearGradient>
    <linearGradient id="linear-gradient-2" x1="684.76" y1="888.43" x2="684.76" y2="170.05" gradientTransform="translate(-1.8 1.81) rotate(-.22)" gradientUnits="userSpaceOnUse">
      <stop offset="0" stop-color="#2ae5da"/>
      <stop offset="1" stop-color="#5c82e5"/>
    </linearGradient>
    <linearGradient id="linear-gradient-3" x1="254.8" y1="888.43" x2="254.8" y2="170.05" xlink:href="#linear-gradient-2"/>
    <linearGradient id="linear-gradient-4" x1="450.03" y1="1034.69" x2="450.03" y2="240.35" gradientTransform="translate(-1.8 1.81) rotate(-.22)" gradientUnits="userSpaceOnUse">
      <stop offset=".3" stop-color="#7a2dd0"/>
      <stop offset=".72" stop-color="#c44b88"/>
      <stop offset=".93" stop-color="#dc5a70"/>
    </linearGradient>
    <linearGradient id="linear-gradient-5" x1="469.78" y1="939.02" x2="469.78" y2="0" xlink:href="#linear-gradient"/>
  </defs>
  <path class="cls-1" d="M269.13,404.95c-.85,2.39-1.71,4.76-2.58,7.11,69.82-47.06,132.09-60.37,186.78-63.34,1.76-.42,3.58-.66,5.46-.67,3.47-.01,6.99,.01,10.53,.06,3.54-.08,7.05-.13,10.53-.15,1.88,0,3.71,.22,5.47,.63,54.71,2.55,117.08,15.37,187.26,61.9-.89-2.34-1.77-4.7-2.64-7.09-23.27-63.77-31.66-118.6-25.17-163.73-53.84,35.14-108.5,54.77-163.4,58.62-1.76,.42-3.59,.67-5.49,.67-2.25,0-4.5-.03-6.75-.07-2.25,.06-4.5,.12-6.75,.12-1.89,0-3.72-.23-5.49-.63-54.93-3.43-109.73-22.63-163.85-57.36,6.84,45.08-1.13,99.97-23.91,163.92Z"/>
  <circle class="cls-1" cx="468.4" cy="109.73" r="61.6"/>
  <path class="cls-1" d="M708.19,500.19c-.12-.11-.24-.2-.36-.3-93.57-87.11-169.92-102.56-238.34-103.63-68.4,1.6-144.63,17.63-237.53,105.46-.12,.11-.24,.2-.36,.31,48.14,37.03,160,140.43,239.64,349.42,78.03-209.6,189.09-313.85,236.94-351.25Z"/>
  <path class="cls-2" d="M468.82,219.45c60.5-.23,109.54-49.64,109.3-110.15C577.89,48.8,528.48-.23,467.97,0c-60.5,.23-109.54,49.64-109.3,110.15s49.64,109.54,110.15,109.3Zm-.66-171.33c33.97-.13,61.71,27.4,61.84,61.37s-27.4,61.71-61.37,61.84-61.71-27.4-61.84-61.37c-.13-33.97,27.4-61.71,61.37-61.84Z"/>
  <g>
    <path class="cls-5" d="M846.19,585.63c31.42-98.47,9.41-214.52-8.56-262.96-16.43-44.27-61.33-119.02-103.59-153.64-13.94,9.39-25.53,30.37-32.06,44.27-38.1,81.06,32.17,228.48,62.46,278.44,6.88,11.35,3.28,26.15-8.07,33.05-.36,.22-42.18,26.3-94.75,88.27-44.65,52.63-105.7,141.82-152.5,275.23,8.99-1.04,19.04-2.48,29.91-4.46,14.86-5.1,32.92-11.95,54.93-21.03,146.35-60.38,220.81-178.69,252.22-277.16Z"/>
    <path class="cls-3" d="M279.04,614.53c-53.05-61.57-95.07-87.32-95.49-87.57-11.33-6.85-15.05-21.6-8.26-32.96,29.9-50.18,99.04-198.14,60.31-278.9-6.64-13.84-18.39-34.73-32.4-44.02-41.99,34.94-86.32,110.04-102.4,154.43-17.6,48.57-38.71,164.79-6.53,263.01,32.17,98.23,107.54,215.96,254.35,275.22,22.08,8.91,40.2,15.62,55.09,20.6,10.89,1.9,20.95,3.26,29.95,4.23-47.83-133.05-109.56-221.76-154.62-274.05Z"/>
  </g>
  <path class="cls-4" d="M644.77,239.68c-5.19,36.08-.84,78.36,12.98,126.43-52.53-25.26-117.8-40.13-188.51-39.86-70.73,.27-135.87,15.67-188.21,41.35,13.47-48.2,17.49-90.53,12.02-126.57,54.11,34.73,108.92,53.93,163.85,57.36,1.77,.41,3.6,.64,5.49,.63,2.25,0,4.5-.06,6.75-.12,2.25,.04,4.5,.08,6.75,.07,1.89,0,3.72-.26,5.49-.67,54.9-3.85,109.56-23.47,163.4-58.62Zm-147.89,409.62l.46,119.27c34.72-133.69,171.34-275.05,171.34-275.05-70.52-69.13-160.57-90.87-198.72-97.25-.15,0-.3,0-.46-.01-68.4,1.6-144.63,17.63-237.53,105.46-.12,.11-.24,.2-.36,.31,42.97,33.05,136.71,119,212.99,285.72l-.53-138.24c-21.11-9.84-35.79-31.21-35.89-56.05-.13-34.28,27.55-62.18,61.84-62.31,34.28-.13,62.18,27.55,62.31,61.84,.1,24.84-14.42,46.32-35.45,56.32Z"/>
  <path class="cls-6" d="M901.14,279.4c-13.33-29.28-34.83-71.3-61.58-105.24-30.24-38.36-60.86-57.91-91.02-58.1-17.29-.15-33.33,5.88-48.01,17.93-2.48,1.11-4.83,2.63-6.9,4.63-74.63,72.03-150.19,109.73-224.7,112.15-74.53-1.85-150.37-38.96-225.55-110.42-2.12-2.01-4.52-3.54-7.05-4.63-14.73-11.85-30.78-17.72-48.02-17.5-30.16,.42-60.63,20.2-90.57,58.79-26.49,34.15-47.67,76.33-60.77,105.71C7.83,348.07-4.73,426.65,1.6,503.98c7.33,89.45,39.6,174.86,93.33,247,128.44,172.46,322.87,187.21,373.77,187.99v.06c.87,0,1.85-.01,2.88-.03,1.03,0,2.01,0,2.88,0v-.06c50.9-1.18,245.2-17.42,372.31-190.86,53.17-72.55,84.79-158.21,91.43-247.71,5.74-77.37-7.42-155.85-37.06-220.97Zm-632.01,125.55c22.78-63.95,30.75-118.84,23.91-163.92,54.11,34.73,108.92,53.93,163.85,57.36,1.77,.41,3.6,.64,5.49,.63,2.25,0,4.5-.06,6.75-.12,2.25,.04,4.5,.08,6.75,.07,1.89,0,3.72-.26,5.49-.67,54.9-3.85,109.56-23.47,163.4-58.62-6.5,45.14,1.9,99.96,25.17,163.73,.87,2.39,1.75,4.75,2.64,7.09-70.18-46.53-132.55-59.35-187.26-61.9-1.76-.4-3.58-.63-5.47-.63-3.47,.01-6.99,.07-10.53,.15-3.54-.05-7.06-.08-10.53-.06-1.88,0-3.7,.25-5.46,.67-54.69,2.97-116.96,16.27-186.78,63.34,.87-2.35,1.73-4.72,2.58-7.11Zm200.89,126.19c-34.28,.13-61.97,28.03-61.84,62.31,.1,24.84,14.77,46.2,35.89,56.05l.53,138.24c-76.28-166.72-170.02-252.66-212.99-285.72,.12-.11,.24-.2,.36-.31,92.9-87.83,169.13-103.87,237.53-105.46,68.41,1.07,144.76,16.52,238.34,103.63,.12,.11,.24,.2,.36,.3-42.72,33.38-135.79,120.05-210.79,287.35l-.53-138.24c21.04-10,35.55-31.48,35.45-56.32-.13-34.28-28.03-61.97-62.31-61.84Zm-336.49,191.09c-48.34-64.9-77.37-141.73-83.96-222.19-5.69-69.41,5.45-139.63,31.35-197.72,36.1-80.94,79.52-135.59,108.06-135.99,.07,0,.13,0,.2,0,20.03-.08,37.69,30.49,46.44,48.76,38.72,80.76-30.41,228.72-60.31,278.9-6.79,11.36-3.06,26.11,8.26,32.96,.42,.25,42.43,26,95.49,87.57,45.06,52.29,106.79,141,154.62,274.05-70.37-7.57-205.37-39.1-300.13-166.34Zm756.69-225.42c-5.97,80.5-34.42,157.55-82.25,222.83-93.78,127.97-228.53,160.53-298.84,168.65,46.81-133.41,107.85-222.6,152.5-275.23,52.58-61.97,94.39-88.05,94.75-88.27,11.35-6.9,14.95-21.69,8.07-33.05-30.29-49.96-100.56-197.38-62.46-278.44,8.62-18.34,26.04-49.04,46.07-49.11,.06,0,.13,0,.2,0,28.54,.17,72.38,54.49,109.1,135.15,26.35,57.89,38.03,128.02,32.87,197.47ZM468.82,219.45c60.5-.23,109.54-49.64,109.3-110.15C577.89,48.8,528.48-.23,467.97,0c-60.5,.23-109.54,49.64-109.3,110.15s49.64,109.54,110.15,109.3Zm-.66-171.33c33.97-.13,61.71,27.4,61.84,61.37s-27.4,61.71-61.37,61.84c-33.97,.13-61.71-27.4-61.84-61.37-.13-33.97,27.4-61.71,61.37-61.84Z"/>
</svg>